<svg width="837" height="717" viewBox="0 0 837 717" fill="none" xmlns="http://www.w3.org/2000/svg">
<path d="M165.876 105.123C127.827 143.171 98.8414 189.303 81.0709 240.092C63.3003 290.881 57.202 345.021 63.2289 398.491C69.2558 451.96 87.2532 503.385 115.884 548.943C144.514 594.502 183.042 633.024 228.606 661.648L419.127 358.375L165.876 105.123Z" fill="#FF0000"/>
<path d="M672.379 105.123C605.213 37.9564 514.115 0.222657 419.127 0.222656C324.139 0.222655 233.042 37.9564 165.875 105.123L419.127 358.375L672.379 105.123Z" fill="#FF9F0D" fill-opacity="0.15"/>
<path d="M73.1788 265.679C58.4456 320.664 57.031 378.369 69.0526 434.011L419.127 358.375L73.1788 265.679Z" fill="white" fill-opacity="0.29"/>
<path d="M511.824 12.4264C456.839 -2.3069 399.133 -3.72139 343.492 8.30017L419.128 358.375L511.824 12.4264Z" fill="white" fill-opacity="0.29"/>
<path d="M417.785 119.845V106.947H421.85V119.845H417.785ZM431.754 119.438V124.242H405.885V105.358H409.913V119.438H431.754Z" fill="white" fill-opacity="0.35"/>
<path d="M431.754 105.49L405.885 93.849V89.1188L431.754 77.4411V82.467L408.435 92.4817V90.56L431.754 100.538V105.49ZM425.767 100.131L421.997 98.8379V84.869L425.767 83.5756V100.131Z" fill="white" fill-opacity="0.35"/>
<path d="M431.754 74.1513H405.885V69.3472H431.754V74.1513Z" fill="white" fill-opacity="0.35"/>
<path d="M431.754 62.3503H405.885V51.7074C405.885 49.4162 406.255 47.4576 406.994 45.8316C407.733 44.181 408.792 42.9122 410.172 42.0253C411.552 41.1384 413.19 40.6949 415.087 40.6949C416.984 40.6949 418.622 41.1384 420.002 42.0253C421.357 42.9122 422.404 44.181 423.143 45.8316C423.858 47.4576 424.215 49.4162 424.215 51.7074V59.6896L422.034 57.5462H431.754V62.3503ZM431.754 45.4251L422.367 51.9661V46.8294L431.754 40.2515V45.4251ZM422.552 57.5462L420.261 59.6896V51.9291C420.261 49.8104 419.805 48.2213 418.893 47.162C417.982 46.078 416.713 45.536 415.087 45.536C413.436 45.536 412.168 46.078 411.281 47.162C410.394 48.2213 409.95 49.8104 409.95 51.9291V59.6896L407.585 57.5462H422.552Z" fill="white" fill-opacity="0.35"/>
<path d="M616.437 657.276C660.778 628.006 698.051 589.237 725.555 543.78C753.06 498.322 770.105 447.315 775.458 394.454C780.81 341.594 774.334 288.205 756.501 238.157C738.667 188.109 709.921 142.655 672.347 105.091L419.127 358.375L616.437 657.276Z" fill="#00EB10" fill-opacity="0.15"/>
<path d="M765.076 451.071C779.809 396.086 781.224 338.381 769.202 282.739L419.127 358.375L765.076 451.071Z" fill="white" fill-opacity="0.29"/>
<path d="M0 513.276H836.407V716.527H0V513.276Z" fill="white"/>
<path d="M362.538 522.516H369.048V512.082C369.651 512.211 370.427 512.254 371.29 512.254C375.17 512.254 378.49 511.263 380.732 509.193C382.499 507.598 383.405 505.141 383.405 502.295C383.405 499.45 382.197 497.035 380.3 495.569C378.36 494.017 375.472 493.241 371.419 493.241C367.409 493.241 364.564 493.5 362.538 493.845V522.516ZM369.048 498.458C369.522 498.329 370.427 498.242 371.721 498.242C375.041 498.242 376.894 499.838 376.894 502.511C376.894 505.442 374.739 507.21 371.247 507.21C370.255 507.21 369.608 507.167 369.048 507.038V498.458Z" fill="white"/>
<path d="M400.394 492.939C391.857 492.939 386.253 499.45 386.253 508.159C386.253 516.48 391.34 522.99 399.92 522.99C408.456 522.99 414.19 517.256 414.19 507.684C414.19 499.622 409.318 492.939 400.394 492.939ZM400.265 498.156C404.791 498.156 407.249 502.64 407.249 507.9C407.249 513.548 404.705 517.773 400.265 517.773C395.867 517.773 393.194 513.763 393.194 508.029C393.194 502.381 395.781 498.156 400.265 498.156Z" fill="white"/>
<path d="M431.298 492.939C422.761 492.939 417.156 499.45 417.156 508.159C417.156 516.48 422.244 522.99 430.823 522.99C439.36 522.99 445.094 517.256 445.094 507.684C445.094 499.622 440.222 492.939 431.298 492.939ZM431.168 498.156C435.695 498.156 438.153 502.64 438.153 507.9C438.153 513.548 435.609 517.773 431.168 517.773C426.771 517.773 424.098 513.763 424.098 508.029C424.098 502.381 426.684 498.156 431.168 498.156Z" fill="white"/>
<path d="M449.397 522.516H455.907V511.09H457.847C460.563 511.133 461.813 512.082 462.633 515.747C463.452 519.325 464.185 521.653 464.616 522.516H471.342C470.781 521.395 469.919 517.601 469.013 514.281C468.281 511.608 467.16 509.711 465.133 508.892V508.762C467.634 507.857 470.264 505.313 470.264 501.648C470.264 498.975 469.315 496.906 467.548 495.526C465.478 493.888 462.46 493.241 458.149 493.241C454.613 493.241 451.509 493.5 449.397 493.845V522.516ZM455.907 498.372C456.381 498.242 457.287 498.156 458.882 498.156C461.9 498.156 463.71 499.536 463.71 502.166C463.71 504.71 461.77 506.348 458.494 506.348H455.907V498.372Z" fill="white"/>
<path d="M610.368 358.375C610.368 463.994 524.747 549.616 419.128 549.616C313.508 549.616 227.887 463.994 227.887 358.375C227.887 252.756 313.508 167.135 419.128 167.135C524.747 167.135 610.368 252.756 610.368 358.375Z" fill="white"/>
<path d="M283.9 223.147C248.036 259.012 227.887 307.655 227.887 358.375C227.887 409.095 248.036 457.738 283.9 493.602L419.128 358.375L283.9 223.147Z" fill="#FF0000"/>
<path fill-rule="evenodd" clip-rule="evenodd" d="M286.403 272.686C270.042 298.029 261.146 327.743 261.146 358.375C261.146 389.006 270.042 418.72 286.403 444.063L372.092 358.375L286.403 272.686ZM262.443 248.725C240.103 280.648 227.887 318.882 227.887 358.375C227.887 397.868 240.103 436.102 262.443 468.024C268.793 477.099 275.962 485.664 283.9 493.602L419.128 358.375L283.9 223.147C275.962 231.086 268.793 239.651 262.443 248.725Z" fill="white"/>
<path d="M555.552 358.374C555.552 433.72 494.472 494.799 419.127 494.799C343.782 494.799 282.703 433.72 282.703 358.374C282.703 283.029 343.782 221.95 419.127 221.95C494.472 221.95 555.552 283.029 555.552 358.374Z" fill="#59595B"/>
<path fill-rule="evenodd" clip-rule="evenodd" d="M419.127 461.54C476.104 461.54 522.293 415.351 522.293 358.374C522.293 301.398 476.104 255.209 419.127 255.209C362.151 255.209 315.962 301.398 315.962 358.374C315.962 415.351 362.151 461.54 419.127 461.54ZM419.127 494.799C494.472 494.799 555.552 433.72 555.552 358.374C555.552 283.029 494.472 221.95 419.127 221.95C343.782 221.95 282.703 283.029 282.703 358.374C282.703 433.72 343.782 494.799 419.127 494.799Z" fill="white"/>
<path d="M386.792 358.375L435.295 330.371L435.295 386.378L386.792 358.375Z" fill="white"/>
<path d="M91.5491 371.001V345.133H102.192C104.483 345.133 106.442 345.503 108.068 346.242C109.718 346.981 110.987 348.04 111.874 349.42C112.761 350.8 113.205 352.438 113.205 354.335C113.205 356.232 112.761 357.87 111.874 359.25C110.987 360.63 109.718 361.689 108.068 362.428C106.442 363.167 104.483 363.537 102.192 363.537H94.2098L96.3532 361.282V371.001H91.5491ZM96.3532 361.8L94.2098 359.472H101.97C104.089 359.472 105.678 359.028 106.737 358.141C107.821 357.23 108.363 355.961 108.363 354.335C108.363 352.684 107.821 351.416 106.737 350.529C105.678 349.642 104.089 349.198 101.97 349.198H94.2098L96.3532 346.833V361.8Z" fill="white"/>
<path d="M130.484 371.371C128.464 371.371 126.604 371.038 124.904 370.373C123.204 369.708 121.726 368.784 120.469 367.602C119.213 366.394 118.24 364.99 117.55 363.389C116.86 361.763 116.515 359.989 116.515 358.067C116.515 356.146 116.86 354.384 117.55 352.783C118.24 351.157 119.213 349.753 120.469 348.57C121.726 347.363 123.204 346.427 124.904 345.761C126.604 345.096 128.451 344.764 130.447 344.764C132.467 344.764 134.315 345.096 135.99 345.761C137.69 346.427 139.168 347.363 140.425 348.57C141.681 349.753 142.654 351.157 143.344 352.783C144.034 354.384 144.379 356.146 144.379 358.067C144.379 359.989 144.034 361.763 143.344 363.389C142.654 365.015 141.681 366.419 140.425 367.602C139.168 368.784 137.69 369.708 135.99 370.373C134.315 371.038 132.48 371.371 130.484 371.371ZM130.447 367.158C131.753 367.158 132.96 366.936 134.069 366.493C135.177 366.05 136.138 365.421 136.951 364.608C137.764 363.771 138.392 362.81 138.836 361.726C139.304 360.617 139.538 359.398 139.538 358.067C139.538 356.737 139.304 355.53 138.836 354.446C138.392 353.337 137.764 352.376 136.951 351.563C136.138 350.726 135.177 350.085 134.069 349.642C132.96 349.198 131.753 348.977 130.447 348.977C129.141 348.977 127.934 349.198 126.825 349.642C125.741 350.085 124.781 350.726 123.943 351.563C123.13 352.376 122.489 353.337 122.021 354.446C121.578 355.53 121.356 356.737 121.356 358.067C121.356 359.373 121.578 360.58 122.021 361.689C122.489 362.798 123.13 363.771 123.943 364.608C124.756 365.421 125.717 366.05 126.825 366.493C127.934 366.936 129.141 367.158 130.447 367.158Z" fill="white"/>
<path d="M161.592 371.371C159.572 371.371 157.712 371.038 156.012 370.373C154.312 369.708 152.834 368.784 151.578 367.602C150.321 366.394 149.348 364.99 148.658 363.389C147.968 361.763 147.623 359.989 147.623 358.067C147.623 356.146 147.968 354.384 148.658 352.783C149.348 351.157 150.321 349.753 151.578 348.57C152.834 347.363 154.312 346.427 156.012 345.761C157.712 345.096 159.56 344.764 161.555 344.764C163.576 344.764 165.423 345.096 167.099 345.761C168.798 346.427 170.277 347.363 171.533 348.57C172.79 349.753 173.763 351.157 174.453 352.783C175.142 354.384 175.487 356.146 175.487 358.067C175.487 359.989 175.142 361.763 174.453 363.389C173.763 365.015 172.79 366.419 171.533 367.602C170.277 368.784 168.798 369.708 167.099 370.373C165.423 371.038 163.588 371.371 161.592 371.371ZM161.555 367.158C162.861 367.158 164.068 366.936 165.177 366.493C166.286 366.05 167.246 365.421 168.059 364.608C168.872 363.771 169.501 362.81 169.944 361.726C170.412 360.617 170.646 359.398 170.646 358.067C170.646 356.737 170.412 355.53 169.944 354.446C169.501 353.337 168.872 352.376 168.059 351.563C167.246 350.726 166.286 350.085 165.177 349.642C164.068 349.198 162.861 348.977 161.555 348.977C160.25 348.977 159.042 349.198 157.934 349.642C156.85 350.085 155.889 350.726 155.051 351.563C154.238 352.376 153.598 353.337 153.13 354.446C152.686 355.53 152.464 356.737 152.464 358.067C152.464 359.373 152.686 360.58 153.13 361.689C153.598 362.798 154.238 363.771 155.051 364.608C155.864 365.421 156.825 366.05 157.934 366.493C159.042 366.936 160.25 367.158 161.555 367.158Z" fill="white"/>
<path d="M180.579 371.001V345.133H191.222C193.514 345.133 195.472 345.503 197.098 346.242C198.749 346.981 200.018 348.04 200.905 349.42C201.791 350.8 202.235 352.438 202.235 354.335C202.235 356.232 201.791 357.87 200.905 359.25C200.018 360.605 198.749 361.652 197.098 362.391C195.472 363.106 193.514 363.463 191.222 363.463H183.24L185.384 361.282V371.001H180.579ZM197.505 371.001L190.964 361.615H196.1L202.678 371.001H197.505ZM185.384 361.8L183.24 359.509H191.001C193.119 359.509 194.708 359.053 195.768 358.141C196.852 357.23 197.394 355.961 197.394 354.335C197.394 352.684 196.852 351.416 195.768 350.529C194.708 349.642 193.119 349.198 191.001 349.198H183.24L185.384 346.833V361.8Z" fill="white"/>
<path d="M646.867 371.371C644.847 371.371 642.986 371.051 641.287 370.41C639.611 369.745 638.145 368.821 636.889 367.639C635.633 366.431 634.659 365.015 633.97 363.389C633.28 361.763 632.935 359.989 632.935 358.067C632.935 356.146 633.28 354.372 633.97 352.746C634.659 351.12 635.633 349.716 636.889 348.533C638.17 347.326 639.661 346.402 641.36 345.761C643.06 345.096 644.92 344.764 646.941 344.764C649.133 344.764 651.104 345.121 652.853 345.835C654.627 346.55 656.118 347.597 657.325 348.977L654.295 351.933C653.285 350.923 652.188 350.184 651.006 349.716C649.848 349.223 648.567 348.977 647.162 348.977C645.807 348.977 644.551 349.198 643.393 349.642C642.235 350.085 641.237 350.713 640.4 351.526C639.562 352.339 638.909 353.3 638.441 354.409C637.998 355.517 637.776 356.737 637.776 358.067C637.776 359.373 637.998 360.58 638.441 361.689C638.909 362.798 639.562 363.771 640.4 364.608C641.237 365.421 642.223 366.05 643.356 366.493C644.489 366.936 645.746 367.158 647.125 367.158C648.407 367.158 649.638 366.961 650.821 366.567C652.028 366.148 653.174 365.458 654.258 364.497L656.992 368.082C655.637 369.166 654.061 369.991 652.262 370.558C650.488 371.1 648.69 371.371 646.867 371.371ZM652.447 367.454V357.772H656.992V368.082L652.447 367.454Z" fill="white" fill-opacity="0.35"/>
<path d="M675.45 371.371C673.43 371.371 671.569 371.038 669.87 370.373C668.17 369.708 666.691 368.784 665.435 367.602C664.179 366.394 663.205 364.99 662.516 363.389C661.826 361.763 661.481 359.989 661.481 358.067C661.481 356.146 661.826 354.384 662.516 352.783C663.205 351.157 664.179 349.753 665.435 348.57C666.691 347.363 668.17 346.427 669.87 345.761C671.569 345.096 673.417 344.764 675.413 344.764C677.433 344.764 679.281 345.096 680.956 345.761C682.656 346.427 684.134 347.363 685.391 348.57C686.647 349.753 687.62 351.157 688.31 352.783C689 354.384 689.345 356.146 689.345 358.067C689.345 359.989 689 361.763 688.31 363.389C687.62 365.015 686.647 366.419 685.391 367.602C684.134 368.784 682.656 369.708 680.956 370.373C679.281 371.038 677.445 371.371 675.45 371.371ZM675.413 367.158C676.718 367.158 677.926 366.936 679.034 366.493C680.143 366.05 681.104 365.421 681.917 364.608C682.73 363.771 683.358 362.81 683.801 361.726C684.27 360.617 684.504 359.398 684.504 358.067C684.504 356.737 684.27 355.53 683.801 354.446C683.358 353.337 682.73 352.376 681.917 351.563C681.104 350.726 680.143 350.085 679.034 349.642C677.926 349.198 676.718 348.977 675.413 348.977C674.107 348.977 672.9 349.198 671.791 349.642C670.707 350.085 669.746 350.726 668.909 351.563C668.096 352.376 667.455 353.337 666.987 354.446C666.544 355.53 666.322 356.737 666.322 358.067C666.322 359.373 666.544 360.58 666.987 361.689C667.455 362.798 668.096 363.771 668.909 364.608C669.722 365.421 670.683 366.05 671.791 366.493C672.9 366.936 674.107 367.158 675.413 367.158Z" fill="white" fill-opacity="0.35"/>
<path d="M706.558 371.371C704.538 371.371 702.678 371.038 700.978 370.373C699.278 369.708 697.8 368.784 696.543 367.602C695.287 366.394 694.314 364.99 693.624 363.389C692.934 361.763 692.589 359.989 692.589 358.067C692.589 356.146 692.934 354.384 693.624 352.783C694.314 351.157 695.287 349.753 696.543 348.57C697.8 347.363 699.278 346.427 700.978 345.761C702.678 345.096 704.526 344.764 706.521 344.764C708.541 344.764 710.389 345.096 712.064 345.761C713.764 346.427 715.242 347.363 716.499 348.57C717.755 349.753 718.728 351.157 719.418 352.783C720.108 354.384 720.453 356.146 720.453 358.067C720.453 359.989 720.108 361.763 719.418 363.389C718.728 365.015 717.755 366.419 716.499 367.602C715.242 368.784 713.764 369.708 712.064 370.373C710.389 371.038 708.554 371.371 706.558 371.371ZM706.521 367.158C707.827 367.158 709.034 366.936 710.143 366.493C711.251 366.05 712.212 365.421 713.025 364.608C713.838 363.771 714.466 362.81 714.91 361.726C715.378 360.617 715.612 359.398 715.612 358.067C715.612 356.737 715.378 355.53 714.91 354.446C714.466 353.337 713.838 352.376 713.025 351.563C712.212 350.726 711.251 350.085 710.143 349.642C709.034 349.198 707.827 348.977 706.521 348.977C705.215 348.977 704.008 349.198 702.9 349.642C701.816 350.085 700.855 350.726 700.017 351.563C699.204 352.376 698.564 353.337 698.095 354.446C697.652 355.53 697.43 356.737 697.43 358.067C697.43 359.373 697.652 360.58 698.095 361.689C698.564 362.798 699.204 363.771 700.017 364.608C700.83 365.421 701.791 366.05 702.9 366.493C704.008 366.936 705.215 367.158 706.521 367.158Z" fill="white" fill-opacity="0.35"/>
<path d="M725.545 371.001V345.133H736.853C739.662 345.133 742.126 345.675 744.244 346.759C746.363 347.843 748.014 349.346 749.196 351.268C750.379 353.189 750.97 355.456 750.97 358.067C750.97 360.654 750.379 362.921 749.196 364.867C748.014 366.789 746.363 368.291 744.244 369.375C742.126 370.459 739.662 371.001 736.853 371.001H725.545ZM730.349 366.936H736.632C738.578 366.936 740.253 366.567 741.657 365.828C743.086 365.089 744.183 364.054 744.946 362.724C745.735 361.393 746.129 359.841 746.129 358.067C746.129 356.269 745.735 354.717 744.946 353.411C744.183 352.081 743.086 351.046 741.657 350.307C740.253 349.568 738.578 349.198 736.632 349.198H730.349V366.936Z" fill="white" fill-opacity="0.35"/>
</svg>
