<svg width="837" height="717" viewBox="0 0 837 717" fill="none" xmlns="http://www.w3.org/2000/svg">
<path d="M165.876 104.9C127.827 142.948 98.8414 189.081 81.0709 239.87C63.3003 290.658 57.202 344.799 63.2289 398.268C69.2558 451.738 87.2532 503.162 115.884 548.721C144.514 594.279 183.042 632.802 228.606 661.425L419.127 358.152L165.876 104.9Z" fill="#FF0000" fill-opacity="0.15"/>
<path d="M672.379 104.9C605.213 37.7338 514.115 1.13272e-06 419.127 0C324.139 -1.13272e-06 233.042 37.7338 165.875 104.9L419.127 358.152L672.379 104.9Z" fill="#FF9F0D"/>
<path d="M73.1788 265.456C58.4456 320.441 57.031 378.147 69.0526 433.788L419.127 358.153L73.1788 265.456Z" fill="white" fill-opacity="0.29"/>
<path d="M511.824 12.2037C456.839 -2.52955 399.133 -3.94405 343.492 8.07752L419.128 358.152L511.824 12.2037Z" fill="white" fill-opacity="0.29"/>
<path d="M417.785 119.622V106.725H421.85V119.622H417.785ZM431.754 119.215V124.02H405.885V105.136H409.913V119.215H431.754Z" fill="white"/>
<path d="M431.754 105.267L405.885 93.6263V88.8961L431.754 77.2185V82.2443L408.435 92.259V90.3374L431.754 100.315V105.267ZM425.767 99.9086L421.997 98.6152V84.6464L425.767 83.3529V99.9086Z" fill="white"/>
<path d="M431.754 73.9286H405.885V69.1245H431.754V73.9286Z" fill="white"/>
<path d="M431.754 62.1277H405.885V51.4848C405.885 49.1936 406.255 47.235 406.994 45.609C407.733 43.9583 408.792 42.6895 410.172 41.8026C411.552 40.9157 413.19 40.4723 415.087 40.4723C416.984 40.4723 418.622 40.9157 420.002 41.8026C421.357 42.6895 422.404 43.9583 423.143 45.609C423.858 47.235 424.215 49.1936 424.215 51.4848V59.467L422.034 57.3236H431.754V62.1277ZM431.754 45.2025L422.367 51.7434V46.6067L431.754 40.0288V45.2025ZM422.552 57.3236L420.261 59.467V51.7065C420.261 49.5877 419.805 47.9987 418.893 46.9393C417.982 45.8553 416.713 45.3133 415.087 45.3133C413.436 45.3133 412.168 45.8553 411.281 46.9393C410.394 47.9987 409.95 49.5877 409.95 51.7065V59.467L407.585 57.3236H422.552Z" fill="white"/>
<path d="M616.437 657.054C660.778 627.784 698.051 589.015 725.555 543.557C753.06 498.1 770.105 447.092 775.458 394.232C780.81 341.371 774.334 287.982 756.501 237.934C738.667 187.886 709.921 142.432 672.347 104.868L419.127 358.152L616.437 657.054Z" fill="#00EB10" fill-opacity="0.15"/>
<path d="M765.076 450.849C779.809 395.863 781.224 338.158 769.202 282.517L419.127 358.152L765.076 450.849Z" fill="white" fill-opacity="0.29"/>
<path d="M0 513.054H836.407V716.304H0V513.054Z" fill="white"/>
<path d="M362.538 522.293H369.048V511.859C369.651 511.989 370.427 512.032 371.29 512.032C375.17 512.032 378.49 511.04 380.732 508.971C382.499 507.375 383.405 504.918 383.405 502.072C383.405 499.227 382.197 496.813 380.3 495.347C378.36 493.795 375.472 493.019 371.419 493.019C367.409 493.019 364.564 493.277 362.538 493.622V522.293ZM369.048 498.235C369.522 498.106 370.427 498.02 371.721 498.02C375.041 498.02 376.894 499.615 376.894 502.288C376.894 505.22 374.739 506.987 371.247 506.987C370.255 506.987 369.608 506.944 369.048 506.815V498.235Z" fill="white"/>
<path d="M400.394 492.717C391.857 492.717 386.253 499.227 386.253 507.936C386.253 516.257 391.34 522.767 399.92 522.767C408.456 522.767 414.19 517.033 414.19 507.462C414.19 499.399 409.318 492.717 400.394 492.717ZM400.265 497.934C404.791 497.934 407.249 502.417 407.249 507.677C407.249 513.325 404.705 517.55 400.265 517.55C395.867 517.55 393.194 513.541 393.194 507.807C393.194 502.159 395.781 497.934 400.265 497.934Z" fill="white"/>
<path d="M431.298 492.717C422.761 492.717 417.156 499.227 417.156 507.936C417.156 516.257 422.244 522.767 430.823 522.767C439.36 522.767 445.094 517.033 445.094 507.462C445.094 499.399 440.222 492.717 431.298 492.717ZM431.168 497.934C435.695 497.934 438.153 502.417 438.153 507.677C438.153 513.325 435.609 517.55 431.168 517.55C426.771 517.55 424.098 513.541 424.098 507.807C424.098 502.159 426.684 497.934 431.168 497.934Z" fill="white"/>
<path d="M449.397 522.293H455.907V510.868H457.847C460.563 510.911 461.813 511.859 462.633 515.524C463.452 519.102 464.185 521.431 464.616 522.293H471.342C470.781 521.172 469.919 517.378 469.013 514.058C468.281 511.385 467.16 509.488 465.133 508.669V508.54C467.634 507.634 470.264 505.09 470.264 501.426C470.264 498.753 469.315 496.683 467.548 495.304C465.478 493.665 462.46 493.019 458.149 493.019C454.613 493.019 451.509 493.277 449.397 493.622V522.293ZM455.907 498.149C456.381 498.02 457.287 497.934 458.882 497.934C461.9 497.934 463.71 499.313 463.71 501.943C463.71 504.487 461.77 506.125 458.494 506.125H455.907V498.149Z" fill="white"/>
<path d="M419.127 549.393C313.508 549.393 227.887 463.772 227.887 358.152C227.887 252.533 313.508 166.912 419.127 166.912C524.746 166.912 610.368 252.533 610.368 358.152C610.368 463.772 524.746 549.393 419.127 549.393Z" fill="white"/>
<path d="M554.355 222.925C518.49 187.061 469.848 166.912 419.128 166.912C368.408 166.912 319.765 187.061 283.9 222.925L419.128 358.152L554.355 222.925Z" fill="#FF9F0D"/>
<path fill-rule="evenodd" clip-rule="evenodd" d="M504.816 225.428C479.473 209.067 449.759 200.171 419.128 200.171C388.496 200.171 358.782 209.067 333.439 225.428L419.128 311.117L504.816 225.428ZM528.777 201.467C496.855 179.128 458.621 166.912 419.128 166.912C379.634 166.912 341.401 179.128 309.478 201.467C300.404 207.818 291.839 214.987 283.9 222.925L419.128 358.152L554.355 222.925C546.416 214.987 537.852 207.818 528.777 201.467Z" fill="white"/>
<path d="M282.704 358.152C282.704 282.807 343.783 221.728 419.128 221.728C494.473 221.728 555.552 282.807 555.552 358.152C555.552 433.497 494.473 494.576 419.128 494.576C343.783 494.576 282.704 433.497 282.704 358.152Z" fill="#59595B"/>
<path fill-rule="evenodd" clip-rule="evenodd" d="M315.963 358.152C315.963 415.128 362.151 461.317 419.128 461.317C476.104 461.317 522.293 415.128 522.293 358.152C522.293 301.175 476.104 254.987 419.128 254.987C362.151 254.987 315.963 301.175 315.963 358.152ZM282.704 358.152C282.704 433.497 343.783 494.576 419.128 494.576C494.473 494.576 555.552 433.497 555.552 358.152C555.552 282.807 494.473 221.728 419.128 221.728C343.783 221.728 282.704 282.807 282.704 358.152Z" fill="white"/>
<path d="M451.463 358.152L402.96 386.155L402.96 330.148L451.463 358.152Z" fill="white"/>
<path d="M91.5491 370.779V344.911H102.192C104.483 344.911 106.442 345.28 108.068 346.019C109.718 346.758 110.987 347.818 111.874 349.197C112.761 350.577 113.205 352.215 113.205 354.112C113.205 356.009 112.761 357.648 111.874 359.027C110.987 360.407 109.718 361.466 108.068 362.205C106.442 362.944 104.483 363.314 102.192 363.314H94.2098L96.3532 361.06V370.779H91.5491ZM96.3532 361.577L94.2098 359.249H101.97C104.089 359.249 105.678 358.806 106.737 357.919C107.821 357.007 108.363 355.738 108.363 354.112C108.363 352.462 107.821 351.193 106.737 350.306C105.678 349.419 104.089 348.976 101.97 348.976H94.2098L96.3532 346.61V361.577Z" fill="white" fill-opacity="0.35"/>
<path d="M130.484 371.148C128.464 371.148 126.604 370.816 124.904 370.151C123.204 369.485 121.726 368.562 120.469 367.379C119.213 366.172 118.24 364.768 117.55 363.166C116.86 361.54 116.515 359.766 116.515 357.845C116.515 355.923 116.86 354.162 117.55 352.56C118.24 350.934 119.213 349.53 120.469 348.347C121.726 347.14 123.204 346.204 124.904 345.539C126.604 344.874 128.451 344.541 130.447 344.541C132.467 344.541 134.315 344.874 135.99 345.539C137.69 346.204 139.168 347.14 140.425 348.347C141.681 349.53 142.654 350.934 143.344 352.56C144.034 354.162 144.379 355.923 144.379 357.845C144.379 359.766 144.034 361.54 143.344 363.166C142.654 364.792 141.681 366.196 140.425 367.379C139.168 368.562 137.69 369.485 135.99 370.151C134.315 370.816 132.48 371.148 130.484 371.148ZM130.447 366.936C131.753 366.936 132.96 366.714 134.069 366.27C135.177 365.827 136.138 365.199 136.951 364.386C137.764 363.548 138.392 362.587 138.836 361.503C139.304 360.395 139.538 359.175 139.538 357.845C139.538 356.514 139.304 355.307 138.836 354.223C138.392 353.114 137.764 352.154 136.951 351.341C136.138 350.503 135.177 349.862 134.069 349.419C132.96 348.976 131.753 348.754 130.447 348.754C129.141 348.754 127.934 348.976 126.825 349.419C125.741 349.862 124.781 350.503 123.943 351.341C123.13 352.154 122.489 353.114 122.021 354.223C121.578 355.307 121.356 356.514 121.356 357.845C121.356 359.15 121.578 360.358 122.021 361.466C122.489 362.575 123.13 363.548 123.943 364.386C124.756 365.199 125.717 365.827 126.825 366.27C127.934 366.714 129.141 366.936 130.447 366.936Z" fill="white" fill-opacity="0.35"/>
<path d="M161.592 371.148C159.572 371.148 157.712 370.816 156.012 370.151C154.312 369.485 152.834 368.562 151.578 367.379C150.321 366.172 149.348 364.768 148.658 363.166C147.968 361.54 147.623 359.766 147.623 357.845C147.623 355.923 147.968 354.162 148.658 352.56C149.348 350.934 150.321 349.53 151.578 348.347C152.834 347.14 154.312 346.204 156.012 345.539C157.712 344.874 159.56 344.541 161.555 344.541C163.576 344.541 165.423 344.874 167.099 345.539C168.798 346.204 170.277 347.14 171.533 348.347C172.79 349.53 173.763 350.934 174.453 352.56C175.142 354.162 175.487 355.923 175.487 357.845C175.487 359.766 175.142 361.54 174.453 363.166C173.763 364.792 172.79 366.196 171.533 367.379C170.277 368.562 168.798 369.485 167.099 370.151C165.423 370.816 163.588 371.148 161.592 371.148ZM161.555 366.936C162.861 366.936 164.068 366.714 165.177 366.27C166.286 365.827 167.246 365.199 168.059 364.386C168.872 363.548 169.501 362.587 169.944 361.503C170.412 360.395 170.646 359.175 170.646 357.845C170.646 356.514 170.412 355.307 169.944 354.223C169.501 353.114 168.872 352.154 168.059 351.341C167.246 350.503 166.286 349.862 165.177 349.419C164.068 348.976 162.861 348.754 161.555 348.754C160.25 348.754 159.042 348.976 157.934 349.419C156.85 349.862 155.889 350.503 155.051 351.341C154.238 352.154 153.598 353.114 153.13 354.223C152.686 355.307 152.464 356.514 152.464 357.845C152.464 359.15 152.686 360.358 153.13 361.466C153.598 362.575 154.238 363.548 155.051 364.386C155.864 365.199 156.825 365.827 157.934 366.27C159.042 366.714 160.25 366.936 161.555 366.936Z" fill="white" fill-opacity="0.35"/>
<path d="M180.579 370.779V344.911H191.222C193.514 344.911 195.472 345.28 197.098 346.019C198.749 346.758 200.018 347.818 200.905 349.197C201.791 350.577 202.235 352.215 202.235 354.112C202.235 356.009 201.791 357.648 200.905 359.027C200.018 360.382 198.749 361.429 197.098 362.168C195.472 362.883 193.514 363.24 191.222 363.24H183.24L185.384 361.06V370.779H180.579ZM197.505 370.779L190.964 361.392H196.1L202.678 370.779H197.505ZM185.384 361.577L183.24 359.286H191.001C193.119 359.286 194.708 358.83 195.768 357.919C196.852 357.007 197.394 355.738 197.394 354.112C197.394 352.462 196.852 351.193 195.768 350.306C194.708 349.419 193.119 348.976 191.001 348.976H183.24L185.384 346.61V361.577Z" fill="white" fill-opacity="0.35"/>
<path d="M646.867 371.148C644.847 371.148 642.986 370.828 641.287 370.188C639.611 369.522 638.145 368.599 636.889 367.416C635.633 366.209 634.659 364.792 633.97 363.166C633.28 361.54 632.935 359.766 632.935 357.845C632.935 355.923 633.28 354.149 633.97 352.523C634.659 350.897 635.633 349.493 636.889 348.31C638.17 347.103 639.661 346.179 641.36 345.539C643.06 344.874 644.92 344.541 646.941 344.541C649.133 344.541 651.104 344.898 652.853 345.613C654.627 346.327 656.118 347.374 657.325 348.754L654.295 351.71C653.285 350.7 652.188 349.961 651.006 349.493C649.848 349 648.567 348.754 647.162 348.754C645.807 348.754 644.551 348.976 643.393 349.419C642.235 349.862 641.237 350.491 640.4 351.304C639.562 352.117 638.909 353.078 638.441 354.186C637.998 355.295 637.776 356.514 637.776 357.845C637.776 359.15 637.998 360.358 638.441 361.466C638.909 362.575 639.562 363.548 640.4 364.386C641.237 365.199 642.223 365.827 643.356 366.27C644.489 366.714 645.746 366.936 647.125 366.936C648.407 366.936 649.638 366.738 650.821 366.344C652.028 365.925 653.174 365.236 654.258 364.275L656.992 367.859C655.637 368.943 654.061 369.769 652.262 370.335C650.488 370.877 648.69 371.148 646.867 371.148ZM652.447 367.231V357.549H656.992V367.859L652.447 367.231Z" fill="white" fill-opacity="0.35"/>
<path d="M675.45 371.148C673.43 371.148 671.569 370.816 669.87 370.151C668.17 369.485 666.691 368.562 665.435 367.379C664.179 366.172 663.205 364.768 662.516 363.166C661.826 361.54 661.481 359.766 661.481 357.845C661.481 355.923 661.826 354.162 662.516 352.56C663.205 350.934 664.179 349.53 665.435 348.347C666.691 347.14 668.17 346.204 669.87 345.539C671.569 344.874 673.417 344.541 675.413 344.541C677.433 344.541 679.281 344.874 680.956 345.539C682.656 346.204 684.134 347.14 685.391 348.347C686.647 349.53 687.62 350.934 688.31 352.56C689 354.162 689.345 355.923 689.345 357.845C689.345 359.766 689 361.54 688.31 363.166C687.62 364.792 686.647 366.196 685.391 367.379C684.134 368.562 682.656 369.485 680.956 370.151C679.281 370.816 677.445 371.148 675.45 371.148ZM675.413 366.936C676.718 366.936 677.926 366.714 679.034 366.27C680.143 365.827 681.104 365.199 681.917 364.386C682.73 363.548 683.358 362.587 683.801 361.503C684.27 360.395 684.504 359.175 684.504 357.845C684.504 356.514 684.27 355.307 683.801 354.223C683.358 353.114 682.73 352.154 681.917 351.341C681.104 350.503 680.143 349.862 679.034 349.419C677.926 348.976 676.718 348.754 675.413 348.754C674.107 348.754 672.9 348.976 671.791 349.419C670.707 349.862 669.746 350.503 668.909 351.341C668.096 352.154 667.455 353.114 666.987 354.223C666.544 355.307 666.322 356.514 666.322 357.845C666.322 359.15 666.544 360.358 666.987 361.466C667.455 362.575 668.096 363.548 668.909 364.386C669.722 365.199 670.683 365.827 671.791 366.27C672.9 366.714 674.107 366.936 675.413 366.936Z" fill="white" fill-opacity="0.35"/>
<path d="M706.558 371.148C704.538 371.148 702.678 370.816 700.978 370.151C699.278 369.485 697.8 368.562 696.543 367.379C695.287 366.172 694.314 364.768 693.624 363.166C692.934 361.54 692.589 359.766 692.589 357.845C692.589 355.923 692.934 354.162 693.624 352.56C694.314 350.934 695.287 349.53 696.543 348.347C697.8 347.14 699.278 346.204 700.978 345.539C702.678 344.874 704.526 344.541 706.521 344.541C708.541 344.541 710.389 344.874 712.064 345.539C713.764 346.204 715.242 347.14 716.499 348.347C717.755 349.53 718.728 350.934 719.418 352.56C720.108 354.162 720.453 355.923 720.453 357.845C720.453 359.766 720.108 361.54 719.418 363.166C718.728 364.792 717.755 366.196 716.499 367.379C715.242 368.562 713.764 369.485 712.064 370.151C710.389 370.816 708.554 371.148 706.558 371.148ZM706.521 366.936C707.827 366.936 709.034 366.714 710.143 366.27C711.251 365.827 712.212 365.199 713.025 364.386C713.838 363.548 714.466 362.587 714.91 361.503C715.378 360.395 715.612 359.175 715.612 357.845C715.612 356.514 715.378 355.307 714.91 354.223C714.466 353.114 713.838 352.154 713.025 351.341C712.212 350.503 711.251 349.862 710.143 349.419C709.034 348.976 707.827 348.754 706.521 348.754C705.215 348.754 704.008 348.976 702.9 349.419C701.816 349.862 700.855 350.503 700.017 351.341C699.204 352.154 698.564 353.114 698.095 354.223C697.652 355.307 697.43 356.514 697.43 357.845C697.43 359.15 697.652 360.358 698.095 361.466C698.564 362.575 699.204 363.548 700.017 364.386C700.83 365.199 701.791 365.827 702.9 366.27C704.008 366.714 705.215 366.936 706.521 366.936Z" fill="white" fill-opacity="0.35"/>
<path d="M725.545 370.779V344.911H736.853C739.662 344.911 742.126 345.453 744.244 346.537C746.363 347.621 748.014 349.123 749.196 351.045C750.379 352.967 750.97 355.233 750.97 357.845C750.97 360.432 750.379 362.698 749.196 364.644C748.014 366.566 746.363 368.069 744.244 369.153C742.126 370.237 739.662 370.779 736.853 370.779H725.545ZM730.349 366.714H736.632C738.578 366.714 740.253 366.344 741.657 365.605C743.086 364.866 744.183 363.831 744.946 362.501C745.735 361.171 746.129 359.619 746.129 357.845C746.129 356.046 745.735 354.494 744.946 353.188C744.183 351.858 743.086 350.823 741.657 350.084C740.253 349.345 738.578 348.976 736.632 348.976H730.349V366.714Z" fill="white" fill-opacity="0.35"/>
</svg>
