<svg width="143" height="143" viewBox="0 0 143 143" fill="none" xmlns="http://www.w3.org/2000/svg">
<circle cx="71.5" cy="71.5" r="61.5" fill="#FFC83C" stroke="white" stroke-width="20"/>
<path d="M65.8 78.68L63.432 50.2H77.896L75.464 78.68H65.8ZM70.664 95.576C68.5307 95.576 66.7813 94.9147 65.416 93.592C64.0507 92.2693 63.368 90.6907 63.368 88.856C63.368 86.9787 64.0507 85.4213 65.416 84.184C66.7813 82.904 68.5307 82.264 70.664 82.264C72.7973 82.264 74.5253 82.904 75.848 84.184C77.2133 85.4213 77.896 86.9787 77.896 88.856C77.896 90.6907 77.2133 92.2693 75.848 93.592C74.5253 94.9147 72.7973 95.576 70.664 95.576Z" fill="white"/>
</svg>
