<svg width="692" height="175" viewBox="0 0 692 175" fill="none" xmlns="http://www.w3.org/2000/svg">
<path fill-rule="evenodd" clip-rule="evenodd" d="M90.0955 123.666V157.76H89.7463V123.666H90.0955Z" fill="#999999"/>
<path fill-rule="evenodd" clip-rule="evenodd" d="M346.015 19.8662V53.9599H345.666V19.8662H346.015Z" fill="#999999"/>
<path fill-rule="evenodd" clip-rule="evenodd" d="M346.158 123.666V157.76H345.809V123.666H346.158Z" fill="#999999"/>
<path fill-rule="evenodd" clip-rule="evenodd" d="M691.982 70.5464H0.929932V70.1973H691.982V70.5464Z" fill="#999999"/>
<path fill-rule="evenodd" clip-rule="evenodd" d="M691.982 174.019H0.929932V173.67H691.982V174.019Z" fill="#999999"/>
<path d="M2.78247 14.939V1.14258H4.89135L13.5437 11.7658H12.4991V1.14258H15.0416V14.939H12.9327L4.28037 4.31575H5.32495V14.939H2.78247Z" fill="#FF3482"/>
<path d="M24.9862 14.939V12.8104L24.8483 12.3571V8.63206C24.8483 7.90939 24.6315 7.35096 24.1979 6.95678C23.7643 6.54946 23.1073 6.3458 22.2269 6.3458C21.6357 6.3458 21.051 6.43777 20.4728 6.62172C19.9078 6.80567 19.4282 7.06189 19.0341 7.39038L18.0683 5.59685C18.6333 5.16325 19.3034 4.84133 20.0786 4.6311C20.867 4.40773 21.6816 4.29604 22.5226 4.29604C24.0467 4.29604 25.2227 4.66395 26.0505 5.39976C26.8914 6.12242 27.3119 7.24585 27.3119 8.77002V14.939H24.9862ZM21.6751 15.077C20.8867 15.077 20.1969 14.9456 19.6056 14.6828C19.0143 14.4068 18.5545 14.0324 18.226 13.5593C17.9106 13.0732 17.753 12.5279 17.753 11.9235C17.753 11.3322 17.8909 10.8001 18.1669 10.327C18.4559 9.85402 18.9224 9.47955 19.5662 9.20362C20.21 8.92769 21.0641 8.78973 22.1284 8.78973H25.1833V10.4256H22.3058C21.4648 10.4256 20.8999 10.5636 20.6108 10.8395C20.3217 11.1023 20.1772 11.4308 20.1772 11.8249C20.1772 12.2717 20.3546 12.6264 20.7093 12.8892C21.0641 13.152 21.5568 13.2834 22.1875 13.2834C22.7919 13.2834 23.3306 13.1455 23.8037 12.8695C24.2898 12.5936 24.638 12.1863 24.8483 11.6476L25.2621 13.1257C25.0256 13.7433 24.5986 14.2229 23.9811 14.5645C23.3766 14.9061 22.608 15.077 21.6751 15.077Z" fill="#FF3482"/>
<path d="M43.7576 4.29604C44.5986 4.29604 45.3409 4.46029 45.9848 4.78877C46.6417 5.11726 47.1542 5.62313 47.5221 6.30638C47.89 6.97649 48.0739 7.84369 48.0739 8.90799V14.939H45.6103V9.22333C45.6103 8.29043 45.4066 7.59404 44.9993 7.13416C44.592 6.67428 44.0073 6.44434 43.2452 6.44434C42.7065 6.44434 42.2269 6.5626 41.8064 6.79911C41.3991 7.03562 41.0772 7.38381 40.8407 7.84369C40.6173 8.30357 40.5056 8.88828 40.5056 9.59781V14.939H38.042V9.22333C38.042 8.29043 37.8383 7.59404 37.431 7.13416C37.0237 6.67428 36.439 6.44434 35.6769 6.44434C35.1382 6.44434 34.6586 6.5626 34.2381 6.79911C33.8308 7.03562 33.5089 7.38381 33.2724 7.84369C33.049 8.30357 32.9373 8.88828 32.9373 9.59781V14.939H30.4737V4.4143H32.8191V7.213L32.4052 6.38521C32.7599 5.70196 33.2724 5.18296 33.9425 4.82819C34.6257 4.47343 35.401 4.29604 36.2682 4.29604C37.2536 4.29604 38.1077 4.53912 38.8304 5.02528C39.5662 5.51144 40.0523 6.24725 40.2888 7.23271L39.3231 6.89765C39.6647 6.10929 40.2297 5.47859 41.0181 5.00557C41.8064 4.53255 42.7196 4.29604 43.7576 4.29604Z" fill="#FF3482"/>
<path d="M56.1884 15.077C55.019 15.077 53.9941 14.847 53.1138 14.3871C52.2466 13.9141 51.5699 13.2703 51.0837 12.4556C50.6107 11.641 50.3742 10.7147 50.3742 9.67664C50.3742 8.62549 50.6042 7.69916 51.064 6.89765C51.5371 6.08301 52.1809 5.44574 52.9955 4.98586C53.8233 4.52598 54.7628 4.29604 55.8139 4.29604C56.8388 4.29604 57.752 4.51941 58.5535 4.96615C59.355 5.4129 59.9857 6.04359 60.4456 6.85823C60.9055 7.67288 61.1354 8.63206 61.1354 9.73577C61.1354 9.84089 61.1288 9.95914 61.1157 10.0905C61.1157 10.2219 61.1091 10.3468 61.096 10.465H52.3254V8.82915H59.7952L58.8294 9.34159C58.8426 8.73717 58.7178 8.20503 58.455 7.74515C58.1922 7.28527 57.8309 6.92393 57.371 6.66114C56.9242 6.39835 56.4052 6.26696 55.8139 6.26696C55.2095 6.26696 54.6774 6.39835 54.2175 6.66114C53.7708 6.92393 53.416 7.29183 53.1532 7.76485C52.9036 8.22473 52.7787 8.77002 52.7787 9.40071V9.7949C52.7787 10.4256 52.9233 10.984 53.2123 11.4702C53.5014 11.9563 53.9087 12.3308 54.4343 12.5936C54.9599 12.8564 55.5643 12.9878 56.2475 12.9878C56.8388 12.9878 57.371 12.8958 57.844 12.7119C58.317 12.5279 58.7375 12.2388 59.1054 11.8446L60.4259 13.3623C59.9529 13.9141 59.355 14.3411 58.6324 14.6433C57.9228 14.9324 57.1082 15.077 56.1884 15.077Z" fill="#FF3482"/>
<path d="M0.831299 116.565L7.03968 102.769H9.56245L15.7905 116.565H13.1101L7.76892 104.128H8.7938L3.47233 116.565H0.831299ZM3.68913 113.372L4.37895 111.362H11.829L12.5188 113.372H3.68913Z" fill="#FF3482"/>
<path d="M21.982 120.527C21.0097 120.527 20.0571 120.395 19.1242 120.132C18.2044 119.883 17.4489 119.515 16.8576 119.029L17.9613 117.176C18.4212 117.557 18.9993 117.859 19.6957 118.083C20.4053 118.319 21.1214 118.437 21.844 118.437C23.0003 118.437 23.8478 118.168 24.3865 117.629C24.9252 117.104 25.1946 116.309 25.1946 115.244V113.372L25.3917 110.987L25.3128 108.602V106.04H27.6582V114.969C27.6582 116.874 27.1721 118.273 26.1998 119.167C25.2274 120.073 23.8215 120.527 21.982 120.527ZM21.6666 116.092C20.668 116.092 19.7614 115.882 18.9468 115.461C18.1453 115.028 17.508 114.43 17.035 113.668C16.5751 112.906 16.3452 112.012 16.3452 110.987C16.3452 109.976 16.5751 109.089 17.035 108.327C17.508 107.564 18.1453 106.973 18.9468 106.553C19.7614 106.132 20.668 105.922 21.6666 105.922C22.5601 105.922 23.3616 106.099 24.0712 106.454C24.7807 106.809 25.3457 107.361 25.7661 108.11C26.1997 108.859 26.4166 109.818 26.4166 110.987C26.4166 112.157 26.1997 113.122 25.7661 113.885C25.3457 114.633 24.7807 115.192 24.0712 115.56C23.3616 115.915 22.5601 116.092 21.6666 116.092ZM22.0411 114.003C22.6587 114.003 23.2105 113.878 23.6967 113.628C24.1828 113.366 24.5573 113.011 24.8201 112.564C25.096 112.104 25.234 111.579 25.234 110.987C25.234 110.396 25.096 109.877 24.8201 109.43C24.5573 108.97 24.1828 108.622 23.6967 108.386C23.2105 108.136 22.6587 108.011 22.0411 108.011C21.4236 108.011 20.8651 108.136 20.3658 108.386C19.8797 108.622 19.4986 108.97 19.2227 109.43C18.9599 109.877 18.8285 110.396 18.8285 110.987C18.8285 111.579 18.9599 112.104 19.2227 112.564C19.4986 113.011 19.8797 113.366 20.3658 113.628C20.8651 113.878 21.4236 114.003 22.0411 114.003Z" fill="#FF3482"/>
<path d="M35.8441 116.703C34.6747 116.703 33.6499 116.473 32.7695 116.013C31.9023 115.54 31.2256 114.896 30.7395 114.082C30.2665 113.267 30.0299 112.341 30.0299 111.303C30.0299 110.251 30.2599 109.325 30.7198 108.524C31.1928 107.709 31.8366 107.072 32.6513 106.612C33.479 106.152 34.4185 105.922 35.4697 105.922C36.4945 105.922 37.4077 106.145 38.2092 106.592C39.0108 107.039 39.6414 107.67 40.1013 108.484C40.5612 109.299 40.7911 110.258 40.7911 111.362C40.7911 111.467 40.7846 111.585 40.7714 111.717C40.7714 111.848 40.7649 111.973 40.7517 112.091H31.9812V110.455H39.4509L38.4852 110.968C38.4983 110.363 38.3735 109.831 38.1107 109.371C37.8479 108.911 37.4866 108.55 37.0267 108.287C36.58 108.024 36.0609 107.893 35.4697 107.893C34.8653 107.893 34.3331 108.024 33.8732 108.287C33.4265 108.55 33.0717 108.918 32.8089 109.391C32.5593 109.851 32.4345 110.396 32.4345 111.027V111.421C32.4345 112.052 32.579 112.61 32.8681 113.096C33.1571 113.582 33.5645 113.957 34.09 114.22C34.6156 114.482 35.22 114.614 35.9033 114.614C36.4945 114.614 37.0267 114.522 37.4997 114.338C37.9727 114.154 38.3932 113.865 38.7611 113.471L40.0816 114.988C39.6086 115.54 39.0107 115.967 38.2881 116.269C37.5786 116.558 36.7639 116.703 35.8441 116.703Z" fill="#FF3482"/>
<path d="M139.515 116.564V102.768H145.979C147.635 102.768 148.896 103.096 149.763 103.753C150.631 104.397 151.064 105.264 151.064 106.355C151.064 107.091 150.893 107.721 150.552 108.247C150.21 108.759 149.75 109.16 149.172 109.449C148.607 109.725 147.99 109.863 147.319 109.863L147.674 109.153C148.449 109.153 149.146 109.298 149.763 109.587C150.381 109.863 150.867 110.27 151.222 110.809C151.59 111.348 151.774 112.018 151.774 112.819C151.774 114.002 151.32 114.922 150.414 115.579C149.507 116.236 148.16 116.564 146.373 116.564H139.515ZM142.077 114.554H146.216C147.175 114.554 147.911 114.396 148.423 114.081C148.936 113.765 149.192 113.26 149.192 112.563C149.192 111.88 148.936 111.381 148.423 111.065C147.911 110.737 147.175 110.573 146.216 110.573H141.88V108.582H145.703C146.597 108.582 147.28 108.424 147.753 108.109C148.239 107.794 148.482 107.321 148.482 106.69C148.482 106.046 148.239 105.566 147.753 105.251C147.28 104.936 146.597 104.778 145.703 104.778H142.077V114.554Z" fill="#FF3482"/>
<path d="M154.272 116.564V106.039H156.617V108.937L156.341 108.089C156.657 107.38 157.149 106.841 157.819 106.473C158.503 106.105 159.35 105.921 160.362 105.921V108.267C160.257 108.24 160.158 108.227 160.066 108.227C159.974 108.214 159.882 108.207 159.79 108.207C158.857 108.207 158.115 108.483 157.563 109.035C157.011 109.574 156.735 110.382 156.735 111.459V116.564H154.272Z" fill="#FF3482"/>
<path d="M167.002 116.702C166.109 116.702 165.32 116.538 164.637 116.209C163.954 115.868 163.422 115.355 163.041 114.672C162.66 113.976 162.469 113.102 162.469 112.051V106.039H164.933V111.716C164.933 112.662 165.143 113.371 165.564 113.844C165.997 114.304 166.608 114.534 167.396 114.534C167.975 114.534 168.474 114.416 168.894 114.179C169.328 113.943 169.663 113.588 169.9 113.115C170.149 112.642 170.274 112.057 170.274 111.361V106.039H172.738V116.564H170.392V113.726L170.806 114.593C170.451 115.276 169.932 115.802 169.249 116.17C168.566 116.525 167.817 116.702 167.002 116.702Z" fill="#FF3482"/>
<path d="M179.215 116.702C178.335 116.702 177.488 116.59 176.673 116.367C175.871 116.13 175.234 115.848 174.761 115.52L175.707 113.647C176.18 113.949 176.745 114.199 177.402 114.396C178.059 114.593 178.716 114.692 179.373 114.692C180.148 114.692 180.707 114.587 181.048 114.376C181.403 114.166 181.58 113.884 181.58 113.529C181.58 113.24 181.462 113.023 181.226 112.878C180.989 112.721 180.68 112.603 180.299 112.524C179.918 112.445 179.491 112.373 179.018 112.307C178.558 112.241 178.092 112.156 177.619 112.051C177.159 111.932 176.739 111.768 176.358 111.558C175.976 111.335 175.668 111.039 175.431 110.671C175.195 110.303 175.076 109.817 175.076 109.213C175.076 108.542 175.267 107.964 175.648 107.478C176.029 106.979 176.561 106.598 177.244 106.335C177.941 106.059 178.762 105.921 179.708 105.921C180.418 105.921 181.134 106 181.856 106.158C182.579 106.315 183.177 106.539 183.65 106.828L182.704 108.7C182.205 108.398 181.699 108.194 181.186 108.089C180.687 107.971 180.188 107.912 179.688 107.912C178.939 107.912 178.381 108.023 178.013 108.247C177.658 108.47 177.481 108.753 177.481 109.094C177.481 109.41 177.599 109.646 177.836 109.804C178.072 109.962 178.381 110.086 178.762 110.178C179.143 110.27 179.564 110.349 180.023 110.415C180.496 110.467 180.963 110.553 181.423 110.671C181.883 110.789 182.303 110.954 182.684 111.164C183.078 111.361 183.394 111.643 183.63 112.011C183.867 112.379 183.985 112.859 183.985 113.45C183.985 114.107 183.788 114.679 183.394 115.165C183.013 115.651 182.467 116.032 181.758 116.308C181.048 116.571 180.201 116.702 179.215 116.702Z" fill="#FF3482"/>
<path d="M192.078 105.921C192.919 105.921 193.668 106.085 194.325 106.414C194.995 106.742 195.521 107.248 195.902 107.931C196.283 108.602 196.474 109.469 196.474 110.533V116.564H194.01V110.848C194.01 109.916 193.787 109.219 193.34 108.759C192.906 108.299 192.295 108.069 191.507 108.069C190.929 108.069 190.416 108.188 189.97 108.424C189.523 108.661 189.175 109.015 188.925 109.489C188.689 109.948 188.57 110.533 188.57 111.243V116.564H186.107V101.94H188.57V108.878L188.038 108.01C188.406 107.34 188.938 106.828 189.635 106.473C190.344 106.105 191.159 105.921 192.078 105.921Z" fill="#FF3482"/>
<path d="M199.599 116.564V106.039H202.063V116.564H199.599ZM200.841 104.305C200.381 104.305 200 104.16 199.697 103.871C199.408 103.582 199.264 103.234 199.264 102.827C199.264 102.406 199.408 102.058 199.697 101.782C200 101.493 200.381 101.349 200.841 101.349C201.3 101.349 201.675 101.487 201.964 101.763C202.266 102.025 202.417 102.36 202.417 102.768C202.417 103.201 202.273 103.569 201.984 103.871C201.695 104.16 201.314 104.305 200.841 104.305Z" fill="#FF3482"/>
<path d="M211.268 105.921C212.109 105.921 212.858 106.085 213.515 106.414C214.185 106.742 214.711 107.248 215.092 107.931C215.473 108.602 215.663 109.469 215.663 110.533V116.564H213.199V110.848C213.199 109.916 212.976 109.219 212.529 108.759C212.096 108.299 211.485 108.069 210.696 108.069C210.118 108.069 209.606 108.188 209.159 108.424C208.712 108.661 208.364 109.015 208.115 109.489C207.878 109.948 207.76 110.533 207.76 111.243V116.564H205.296V106.039H207.641V108.878L207.228 108.01C207.596 107.34 208.128 106.828 208.824 106.473C209.534 106.105 210.348 105.921 211.268 105.921Z" fill="#FF3482"/>
<path d="M223.577 120.526C222.605 120.526 221.652 120.394 220.719 120.131C219.8 119.882 219.044 119.514 218.453 119.028L219.557 117.175C220.016 117.556 220.595 117.858 221.291 118.082C222.001 118.318 222.717 118.436 223.439 118.436C224.596 118.436 225.443 118.167 225.982 117.628C226.521 117.103 226.79 116.308 226.79 115.244V113.371L226.987 110.986L226.908 108.602V106.039H229.254V114.968C229.254 116.873 228.767 118.272 227.795 119.166C226.823 120.072 225.417 120.526 223.577 120.526ZM223.262 116.091C222.263 116.091 221.357 115.881 220.542 115.46C219.741 115.027 219.103 114.429 218.63 113.667C218.17 112.905 217.94 112.011 217.94 110.986C217.94 109.975 218.17 109.088 218.63 108.326C219.103 107.564 219.741 106.972 220.542 106.552C221.357 106.131 222.263 105.921 223.262 105.921C224.155 105.921 224.957 106.099 225.666 106.453C226.376 106.808 226.941 107.36 227.361 108.109C227.795 108.858 228.012 109.817 228.012 110.986C228.012 112.156 227.795 113.122 227.361 113.884C226.941 114.633 226.376 115.191 225.666 115.559C224.957 115.914 224.155 116.091 223.262 116.091ZM223.636 114.002C224.254 114.002 224.806 113.877 225.292 113.627C225.778 113.365 226.153 113.01 226.415 112.563C226.691 112.103 226.829 111.578 226.829 110.986C226.829 110.395 226.691 109.876 226.415 109.429C226.153 108.97 225.778 108.621 225.292 108.385C224.806 108.135 224.254 108.01 223.636 108.01C223.019 108.01 222.46 108.135 221.961 108.385C221.475 108.621 221.094 108.97 220.818 109.429C220.555 109.876 220.424 110.395 220.424 110.986C220.424 111.578 220.555 112.103 220.818 112.563C221.094 113.01 221.475 113.365 221.961 113.627C222.46 113.877 223.019 114.002 223.636 114.002Z" fill="#FF3482"/>
<path d="M247.873 102.768H250.435V116.564H247.873V102.768ZM240.738 116.564H238.176V102.768H240.738V116.564ZM248.07 110.651H240.521V108.464H248.07V110.651Z" fill="#FF3482"/>
<path d="M260.38 116.564V114.436L260.242 113.982V110.257C260.242 109.534 260.025 108.976 259.591 108.582C259.158 108.175 258.501 107.971 257.62 107.971C257.029 107.971 256.444 108.063 255.866 108.247C255.301 108.431 254.822 108.687 254.427 109.015L253.462 107.222C254.027 106.788 254.697 106.466 255.472 106.256C256.26 106.033 257.075 105.921 257.916 105.921C259.44 105.921 260.616 106.289 261.444 107.025C262.285 107.748 262.705 108.871 262.705 110.395V116.564H260.38ZM257.069 116.702C256.28 116.702 255.59 116.571 254.999 116.308C254.408 116.032 253.948 115.657 253.619 115.184C253.304 114.698 253.146 114.153 253.146 113.549C253.146 112.957 253.284 112.425 253.56 111.952C253.849 111.479 254.316 111.105 254.96 110.829C255.603 110.553 256.458 110.415 257.522 110.415H260.577V112.051H257.699C256.858 112.051 256.293 112.189 256.004 112.465C255.715 112.727 255.571 113.056 255.571 113.45C255.571 113.897 255.748 114.252 256.103 114.514C256.458 114.777 256.95 114.909 257.581 114.909C258.185 114.909 258.724 114.771 259.197 114.495C259.683 114.219 260.031 113.811 260.242 113.273L260.656 114.751C260.419 115.368 259.992 115.848 259.374 116.19C258.77 116.531 258.001 116.702 257.069 116.702Z" fill="#FF3482"/>
<path d="M271.701 116.702C270.808 116.702 270.013 116.505 269.316 116.111C268.62 115.717 268.068 115.125 267.661 114.337C267.266 113.535 267.069 112.524 267.069 111.302C267.069 110.067 267.273 109.055 267.68 108.267C268.101 107.478 268.659 106.893 269.356 106.512C270.065 106.118 270.847 105.921 271.701 105.921C272.739 105.921 273.652 106.145 274.441 106.591C275.242 107.038 275.873 107.662 276.333 108.464C276.806 109.265 277.042 110.211 277.042 111.302C277.042 112.392 276.806 113.338 276.333 114.14C275.873 114.941 275.242 115.572 274.441 116.032C273.652 116.479 272.739 116.702 271.701 116.702ZM265.867 116.564V101.94H268.331V108.483L268.134 111.282L268.213 114.081V116.564H265.867ZM271.425 114.593C272.016 114.593 272.542 114.462 273.002 114.199C273.475 113.936 273.849 113.555 274.125 113.056C274.401 112.557 274.539 111.972 274.539 111.302C274.539 110.619 274.401 110.034 274.125 109.548C273.849 109.048 273.475 108.667 273.002 108.405C272.542 108.142 272.016 108.01 271.425 108.01C270.834 108.01 270.302 108.142 269.829 108.405C269.356 108.667 268.981 109.048 268.705 109.548C268.429 110.034 268.291 110.619 268.291 111.302C268.291 111.972 268.429 112.557 268.705 113.056C268.981 113.555 269.356 113.936 269.829 114.199C270.302 114.462 270.834 114.593 271.425 114.593Z" fill="#FF3482"/>
<path d="M279.379 116.564V106.039H281.842V116.564H279.379ZM280.62 104.305C280.16 104.305 279.779 104.16 279.477 103.871C279.188 103.582 279.044 103.234 279.044 102.827C279.044 102.406 279.188 102.058 279.477 101.782C279.779 101.493 280.16 101.349 280.62 101.349C281.08 101.349 281.455 101.487 281.744 101.763C282.046 102.025 282.197 102.36 282.197 102.768C282.197 103.201 282.053 103.569 281.763 103.871C281.474 104.16 281.093 104.305 280.62 104.305Z" fill="#FF3482"/>
<path d="M289.037 116.702C287.881 116.702 286.988 116.406 286.357 115.815C285.726 115.211 285.411 114.324 285.411 113.154V103.714H287.875V113.095C287.875 113.595 287.999 113.982 288.249 114.258C288.512 114.534 288.873 114.672 289.333 114.672C289.885 114.672 290.345 114.527 290.713 114.238L291.402 115.993C291.113 116.229 290.759 116.406 290.338 116.525C289.918 116.643 289.484 116.702 289.037 116.702ZM283.676 108.089V106.118H290.693V108.089H283.676Z" fill="#FF3482"/>
<path d="M296.681 116.702C295.801 116.702 294.953 116.59 294.139 116.367C293.337 116.13 292.7 115.848 292.227 115.52L293.173 113.647C293.646 113.949 294.211 114.199 294.868 114.396C295.525 114.593 296.182 114.692 296.839 114.692C297.614 114.692 298.172 114.587 298.514 114.376C298.869 114.166 299.046 113.884 299.046 113.529C299.046 113.24 298.928 113.023 298.691 112.878C298.455 112.721 298.146 112.603 297.765 112.524C297.384 112.445 296.957 112.373 296.484 112.307C296.024 112.241 295.558 112.156 295.085 112.051C294.625 111.932 294.204 111.768 293.823 111.558C293.442 111.335 293.133 111.039 292.897 110.671C292.66 110.303 292.542 109.817 292.542 109.213C292.542 108.542 292.733 107.964 293.114 107.478C293.495 106.979 294.027 106.598 294.71 106.335C295.407 106.059 296.228 105.921 297.174 105.921C297.883 105.921 298.599 106 299.322 106.158C300.045 106.315 300.643 106.539 301.116 106.828L300.17 108.7C299.67 108.398 299.164 108.194 298.652 108.089C298.153 107.971 297.653 107.912 297.154 107.912C296.405 107.912 295.847 108.023 295.479 108.247C295.124 108.47 294.947 108.753 294.947 109.094C294.947 109.41 295.065 109.646 295.302 109.804C295.538 109.962 295.847 110.086 296.228 110.178C296.609 110.27 297.029 110.349 297.489 110.415C297.962 110.467 298.429 110.553 298.889 110.671C299.348 110.789 299.769 110.954 300.15 111.164C300.544 111.361 300.859 111.643 301.096 112.011C301.332 112.379 301.451 112.859 301.451 113.45C301.451 114.107 301.254 114.679 300.859 115.165C300.478 115.651 299.933 116.032 299.224 116.308C298.514 116.571 297.667 116.702 296.681 116.702Z" fill="#FF3482"/>
<path d="M387.727 116.564V102.768H393.758C395.256 102.768 396.57 103.057 397.7 103.635C398.83 104.213 399.71 105.015 400.341 106.039C400.972 107.064 401.287 108.273 401.287 109.666C401.287 111.046 400.972 112.254 400.341 113.292C399.71 114.317 398.83 115.119 397.7 115.697C396.57 116.275 395.256 116.564 393.758 116.564H387.727ZM390.289 114.396H393.64C394.678 114.396 395.571 114.199 396.32 113.805C397.082 113.411 397.667 112.859 398.074 112.149C398.495 111.44 398.705 110.612 398.705 109.666C398.705 108.707 398.495 107.879 398.074 107.183C397.667 106.473 397.082 105.921 396.32 105.527C395.571 105.133 394.678 104.936 393.64 104.936H390.289V114.396Z" fill="#FF3482"/>
<path d="M408.721 116.702C407.551 116.702 406.526 116.472 405.646 116.012C404.779 115.539 404.102 114.895 403.616 114.081C403.143 113.266 402.906 112.34 402.906 111.302C402.906 110.251 403.136 109.324 403.596 108.523C404.069 107.708 404.713 107.071 405.528 106.611C406.356 106.151 407.295 105.921 408.346 105.921C409.371 105.921 410.284 106.145 411.086 106.591C411.887 107.038 412.518 107.669 412.978 108.483C413.438 109.298 413.668 110.257 413.668 111.361C413.668 111.466 413.661 111.584 413.648 111.716C413.648 111.847 413.641 111.972 413.628 112.09H404.858V110.454H412.327L411.362 110.967C411.375 110.362 411.25 109.83 410.987 109.37C410.724 108.91 410.363 108.549 409.903 108.286C409.456 108.023 408.937 107.892 408.346 107.892C407.742 107.892 407.21 108.023 406.75 108.286C406.303 108.549 405.948 108.917 405.685 109.39C405.436 109.85 405.311 110.395 405.311 111.026V111.42C405.311 112.051 405.456 112.609 405.745 113.095C406.034 113.581 406.441 113.956 406.967 114.219C407.492 114.481 408.097 114.613 408.78 114.613C409.371 114.613 409.903 114.521 410.376 114.337C410.849 114.153 411.27 113.864 411.638 113.47L412.958 114.987C412.485 115.539 411.887 115.966 411.165 116.268C410.455 116.558 409.64 116.702 408.721 116.702Z" fill="#FF3482"/>
<path d="M422.006 105.921C422.847 105.921 423.596 106.085 424.253 106.414C424.923 106.742 425.449 107.248 425.83 107.931C426.211 108.602 426.401 109.469 426.401 110.533V116.564H423.938V110.848C423.938 109.916 423.714 109.219 423.267 108.759C422.834 108.299 422.223 108.069 421.434 108.069C420.856 108.069 420.344 108.188 419.897 108.424C419.45 108.661 419.102 109.015 418.853 109.489C418.616 109.948 418.498 110.533 418.498 111.243V116.564H416.034V106.039H418.38V108.878L417.966 108.01C418.334 107.34 418.866 106.828 419.562 106.473C420.272 106.105 421.086 105.921 422.006 105.921Z" fill="#FF3482"/>
<path d="M433.488 116.702C432.332 116.702 431.438 116.406 430.808 115.815C430.177 115.211 429.862 114.324 429.862 113.154V103.714H432.325V113.095C432.325 113.595 432.45 113.982 432.7 114.258C432.962 114.534 433.324 114.672 433.784 114.672C434.336 114.672 434.795 114.527 435.163 114.238L435.853 115.993C435.564 116.229 435.209 116.406 434.789 116.525C434.368 116.643 433.935 116.702 433.488 116.702ZM428.127 108.089V106.118H435.144V108.089H428.127Z" fill="#FF3482"/>
<path d="M437.88 116.564V106.039H440.343V116.564H437.88ZM439.121 104.305C438.662 104.305 438.281 104.16 437.978 103.871C437.689 103.582 437.545 103.234 437.545 102.827C437.545 102.406 437.689 102.058 437.978 101.782C438.281 101.493 438.662 101.349 439.121 101.349C439.581 101.349 439.956 101.487 440.245 101.763C440.547 102.025 440.698 102.36 440.698 102.768C440.698 103.201 440.554 103.569 440.265 103.871C439.976 104.16 439.594 104.305 439.121 104.305Z" fill="#FF3482"/>
<path d="M446.829 116.702C445.949 116.702 445.101 116.59 444.286 116.367C443.485 116.13 442.848 115.848 442.375 115.52L443.321 113.647C443.794 113.949 444.359 114.199 445.016 114.396C445.673 114.593 446.33 114.692 446.987 114.692C447.762 114.692 448.32 114.587 448.662 114.376C449.017 114.166 449.194 113.884 449.194 113.529C449.194 113.24 449.076 113.023 448.839 112.878C448.603 112.721 448.294 112.603 447.913 112.524C447.532 112.445 447.105 112.373 446.632 112.307C446.172 112.241 445.706 112.156 445.233 112.051C444.773 111.932 444.352 111.768 443.971 111.558C443.59 111.335 443.281 111.039 443.045 110.671C442.808 110.303 442.69 109.817 442.69 109.213C442.69 108.542 442.881 107.964 443.262 107.478C443.643 106.979 444.175 106.598 444.858 106.335C445.554 106.059 446.376 105.921 447.322 105.921C448.031 105.921 448.747 106 449.47 106.158C450.193 106.315 450.79 106.539 451.264 106.828L450.317 108.7C449.818 108.398 449.312 108.194 448.8 108.089C448.301 107.971 447.801 107.912 447.302 107.912C446.553 107.912 445.995 108.023 445.627 108.247C445.272 108.47 445.095 108.753 445.095 109.094C445.095 109.41 445.213 109.646 445.449 109.804C445.686 109.962 445.995 110.086 446.376 110.178C446.757 110.27 447.177 110.349 447.637 110.415C448.11 110.467 448.576 110.553 449.036 110.671C449.496 110.789 449.917 110.954 450.298 111.164C450.692 111.361 451.007 111.643 451.244 112.011C451.48 112.379 451.599 112.859 451.599 113.45C451.599 114.107 451.401 114.679 451.007 115.165C450.626 115.651 450.081 116.032 449.371 116.308C448.662 116.571 447.814 116.702 446.829 116.702Z" fill="#FF3482"/>
<path d="M457.682 116.702C456.525 116.702 455.632 116.406 455.001 115.815C454.371 115.211 454.055 114.324 454.055 113.154V103.714H456.519V113.095C456.519 113.595 456.644 113.982 456.893 114.258C457.156 114.534 457.518 114.672 457.977 114.672C458.529 114.672 458.989 114.527 459.357 114.238L460.047 115.993C459.758 116.229 459.403 116.406 458.983 116.525C458.562 116.643 458.129 116.702 457.682 116.702ZM452.321 108.089V106.118H459.337V108.089H452.321Z" fill="#FF3482"/>
<path d="M470.319 116.564L465.806 106.039H468.368L472.251 115.322H470.989L475.01 106.039H477.375L472.862 116.564H470.319Z" fill="#FF3482"/>
<path d="M478.915 116.564V106.039H481.378V116.564H478.915ZM480.157 104.305C479.697 104.305 479.316 104.16 479.013 103.871C478.724 103.582 478.58 103.234 478.58 102.827C478.58 102.406 478.724 102.058 479.013 101.782C479.316 101.493 479.697 101.349 480.157 101.349C480.616 101.349 480.991 101.487 481.28 101.763C481.582 102.025 481.733 102.36 481.733 102.768C481.733 103.201 481.589 103.569 481.3 103.871C481.011 104.16 480.63 104.305 480.157 104.305Z" fill="#FF3482"/>
<path d="M487.864 116.702C486.984 116.702 486.136 116.59 485.322 116.367C484.52 116.13 483.883 115.848 483.41 115.52L484.356 113.647C484.829 113.949 485.394 114.199 486.051 114.396C486.708 114.593 487.365 114.692 488.022 114.692C488.797 114.692 489.355 114.587 489.697 114.376C490.052 114.166 490.229 113.884 490.229 113.529C490.229 113.24 490.111 113.023 489.874 112.878C489.638 112.721 489.329 112.603 488.948 112.524C488.567 112.445 488.14 112.373 487.667 112.307C487.207 112.241 486.741 112.156 486.268 112.051C485.808 111.932 485.387 111.768 485.006 111.558C484.625 111.335 484.316 111.039 484.08 110.671C483.843 110.303 483.725 109.817 483.725 109.213C483.725 108.542 483.916 107.964 484.297 107.478C484.678 106.979 485.21 106.598 485.893 106.335C486.59 106.059 487.411 105.921 488.357 105.921C489.066 105.921 489.782 106 490.505 106.158C491.228 106.315 491.826 106.539 492.299 106.828L491.353 108.7C490.853 108.398 490.347 108.194 489.835 108.089C489.336 107.971 488.836 107.912 488.337 107.912C487.588 107.912 487.03 108.023 486.662 108.247C486.307 108.47 486.13 108.753 486.13 109.094C486.13 109.41 486.248 109.646 486.484 109.804C486.721 109.962 487.03 110.086 487.411 110.178C487.792 110.27 488.212 110.349 488.672 110.415C489.145 110.467 489.612 110.553 490.071 110.671C490.531 110.789 490.952 110.954 491.333 111.164C491.727 111.361 492.042 111.643 492.279 112.011C492.515 112.379 492.634 112.859 492.634 113.45C492.634 114.107 492.437 114.679 492.042 115.165C491.661 115.651 491.116 116.032 490.407 116.308C489.697 116.571 488.849 116.702 487.864 116.702Z" fill="#FF3482"/>
<path d="M494.755 116.564V106.039H497.219V116.564H494.755ZM495.997 104.305C495.537 104.305 495.156 104.16 494.854 103.871C494.565 103.582 494.42 103.234 494.42 102.827C494.42 102.406 494.565 102.058 494.854 101.782C495.156 101.493 495.537 101.349 495.997 101.349C496.457 101.349 496.831 101.487 497.12 101.763C497.423 102.025 497.574 102.36 497.574 102.768C497.574 103.201 497.429 103.569 497.14 103.871C496.851 104.16 496.47 104.305 495.997 104.305Z" fill="#FF3482"/>
<path d="M504.414 116.702C503.258 116.702 502.364 116.406 501.734 115.815C501.103 115.211 500.788 114.324 500.788 113.154V103.714H503.251V113.095C503.251 113.595 503.376 113.982 503.626 114.258C503.888 114.534 504.25 114.672 504.71 114.672C505.262 114.672 505.721 114.527 506.089 114.238L506.779 115.993C506.49 116.229 506.135 116.406 505.715 116.525C505.294 116.643 504.861 116.702 504.414 116.702ZM499.053 108.089V106.118H506.07V108.089H499.053Z" fill="#FF3482"/>
<path d="M394.172 15.1367C393.094 15.1367 392.102 14.9659 391.196 14.6243C390.302 14.2695 389.52 13.7768 388.85 13.1461C388.18 12.5023 387.661 11.7467 387.293 10.8795C386.925 10.0123 386.741 9.06629 386.741 8.04142C386.741 7.01654 386.925 6.0705 387.293 5.2033C387.661 4.3361 388.18 3.58715 388.85 2.95646C389.534 2.31262 390.329 1.8199 391.235 1.47827C392.142 1.12351 393.134 0.946123 394.211 0.946123C395.381 0.946123 396.432 1.13664 397.365 1.51769C398.311 1.89873 399.106 2.45716 399.749 3.19297L398.133 4.7697C397.595 4.23098 397.01 3.8368 396.379 3.58715C395.762 3.32436 395.078 3.19297 394.329 3.19297C393.607 3.19297 392.937 3.31122 392.319 3.54773C391.702 3.78424 391.169 4.1193 390.723 4.5529C390.276 4.9865 389.928 5.49894 389.678 6.09021C389.442 6.68149 389.323 7.33189 389.323 8.04142C389.323 8.73781 389.442 9.38164 389.678 9.97292C389.928 10.5642 390.276 11.0832 390.723 11.5299C391.169 11.9635 391.695 12.2986 392.299 12.5351C392.904 12.7716 393.574 12.8899 394.31 12.8899C394.993 12.8899 395.65 12.7848 396.281 12.5745C396.925 12.3512 397.536 11.9832 398.114 11.4708L399.572 13.3826C398.849 13.9607 398.009 14.4009 397.049 14.7031C396.103 14.9922 395.144 15.1367 394.172 15.1367ZM397.148 13.0475V7.88374H399.572V13.3826L397.148 13.0475Z" fill="#FF3482"/>
<path d="M407.662 15.0776C406.493 15.0776 405.468 14.8476 404.587 14.3878C403.72 13.9147 403.043 13.2709 402.557 12.4563C402.084 11.6416 401.848 10.7153 401.848 9.67728C401.848 8.62612 402.078 7.69979 402.538 6.89829C403.011 6.08364 403.654 5.44638 404.469 4.9865C405.297 4.52662 406.236 4.29668 407.287 4.29668C408.312 4.29668 409.226 4.52005 410.027 4.96679C410.829 5.41353 411.459 6.04422 411.919 6.85887C412.379 7.67351 412.609 8.63269 412.609 9.73641C412.609 9.84152 412.602 9.95978 412.589 10.0912C412.589 10.2226 412.583 10.3474 412.57 10.4656H403.799V8.82978H411.269L410.303 9.34222C410.316 8.73781 410.191 8.20566 409.929 7.74578C409.666 7.2859 409.304 6.92457 408.844 6.66178C408.398 6.39899 407.879 6.26759 407.287 6.26759C406.683 6.26759 406.151 6.39899 405.691 6.66178C405.244 6.92457 404.89 7.29247 404.627 7.76549C404.377 8.22537 404.252 8.77066 404.252 9.40135V9.79553C404.252 10.4262 404.397 10.9847 404.686 11.4708C404.975 11.957 405.382 12.3314 405.908 12.5942C406.433 12.857 407.038 12.9884 407.721 12.9884C408.312 12.9884 408.844 12.8964 409.318 12.7125C409.791 12.5285 410.211 12.2395 410.579 11.8453L411.899 13.3629C411.426 13.9147 410.829 14.3418 410.106 14.644C409.396 14.9331 408.582 15.0776 407.662 15.0776Z" fill="#FF3482"/>
<path d="M420.947 4.29668C421.788 4.29668 422.537 4.46092 423.194 4.78941C423.864 5.11789 424.39 5.62376 424.771 6.30701C425.152 6.97712 425.342 7.84433 425.342 8.90862V14.9396H422.879V9.22397C422.879 8.29107 422.655 7.59468 422.209 7.1348C421.775 6.67492 421.164 6.44498 420.376 6.44498C419.798 6.44498 419.285 6.56323 418.838 6.79974C418.392 7.03625 418.043 7.39102 417.794 7.86404C417.557 8.32392 417.439 8.90862 417.439 9.61815V14.9396H414.975V4.41493H417.321V7.25305L416.907 6.38585C417.275 5.71574 417.807 5.2033 418.503 4.84854C419.213 4.48063 420.028 4.29668 420.947 4.29668Z" fill="#FF3482"/>
<path d="M432.941 15.0776C431.93 15.0776 431.016 14.8542 430.202 14.4075C429.4 13.9476 428.769 13.3169 428.31 12.5154C427.85 11.7139 427.62 10.7679 427.62 9.67728C427.62 8.5867 427.85 7.64067 428.31 6.83916C428.769 6.03765 429.4 5.41353 430.202 4.96679C431.016 4.52005 431.93 4.29668 432.941 4.29668C433.822 4.29668 434.61 4.49377 435.306 4.88795C436.003 5.269 436.555 5.8537 436.962 6.64207C437.369 7.43043 437.573 8.44217 437.573 9.67728C437.573 10.8992 437.376 11.911 436.982 12.7125C436.587 13.5009 436.042 14.0921 435.346 14.4863C434.649 14.8805 433.848 15.0776 432.941 15.0776ZM433.237 12.9687C433.828 12.9687 434.354 12.8373 434.814 12.5745C435.287 12.3117 435.661 11.9307 435.937 11.4314C436.226 10.9321 436.371 10.3474 436.371 9.67728C436.371 8.99403 436.226 8.40932 435.937 7.92316C435.661 7.42386 435.287 7.04282 434.814 6.78003C434.354 6.51724 433.828 6.38585 433.237 6.38585C432.646 6.38585 432.113 6.51724 431.64 6.78003C431.181 7.04282 430.806 7.42386 430.517 7.92316C430.241 8.40932 430.103 8.99403 430.103 9.67728C430.103 10.3474 430.241 10.9321 430.517 11.4314C430.806 11.9307 431.181 12.3117 431.64 12.5745C432.113 12.8373 432.646 12.9687 433.237 12.9687ZM436.43 14.9396V12.4563L436.528 9.65757L436.331 6.85887V0.31543H438.775V14.9396H436.43Z" fill="#FF3482"/>
<path d="M446.965 15.0776C445.795 15.0776 444.77 14.8476 443.89 14.3878C443.023 13.9147 442.346 13.2709 441.86 12.4563C441.387 11.6416 441.151 10.7153 441.151 9.67728C441.151 8.62612 441.381 7.69979 441.84 6.89829C442.313 6.08364 442.957 5.44638 443.772 4.9865C444.6 4.52662 445.539 4.29668 446.59 4.29668C447.615 4.29668 448.528 4.52005 449.33 4.96679C450.131 5.41353 450.762 6.04422 451.222 6.85887C451.682 7.67351 451.912 8.63269 451.912 9.73641C451.912 9.84152 451.905 9.95978 451.892 10.0912C451.892 10.2226 451.885 10.3474 451.872 10.4656H443.102V8.82978H450.572L449.606 9.34222C449.619 8.73781 449.494 8.20566 449.231 7.74578C448.969 7.2859 448.607 6.92457 448.147 6.66178C447.701 6.39899 447.182 6.26759 446.59 6.26759C445.986 6.26759 445.454 6.39899 444.994 6.66178C444.547 6.92457 444.192 7.29247 443.93 7.76549C443.68 8.22537 443.555 8.77066 443.555 9.40135V9.79553C443.555 10.4262 443.7 10.9847 443.989 11.4708C444.278 11.957 444.685 12.3314 445.211 12.5942C445.736 12.857 446.341 12.9884 447.024 12.9884C447.615 12.9884 448.147 12.8964 448.62 12.7125C449.093 12.5285 449.514 12.2395 449.882 11.8453L451.202 13.3629C450.729 13.9147 450.131 14.3418 449.409 14.644C448.699 14.9331 447.885 15.0776 446.965 15.0776Z" fill="#FF3482"/>
<path d="M454.278 14.9396V4.41493H456.624V7.31218L456.348 6.46469C456.663 5.75516 457.156 5.21644 457.826 4.84854C458.509 4.48063 459.357 4.29668 460.368 4.29668V6.64207C460.263 6.61579 460.165 6.60265 460.073 6.60265C459.981 6.58951 459.889 6.58294 459.797 6.58294C458.864 6.58294 458.122 6.85887 457.57 7.41072C457.018 7.94944 456.742 8.75752 456.742 9.83495V14.9396H454.278Z" fill="#FF3482"/>
</svg>
