<svg width="538" height="39" viewBox="0 0 538 39" fill="none" xmlns="http://www.w3.org/2000/svg">
<path d="M148.502 34.3907C146.321 34.3907 144.297 34.036 142.431 33.3264C140.592 32.6169 138.989 31.6183 137.622 30.3306C136.282 29.043 135.231 27.5319 134.469 25.7975C133.733 24.0631 133.365 22.1711 133.365 20.1213C133.365 18.0716 133.733 16.1795 134.469 14.4451C135.231 12.7107 136.295 11.1996 137.662 9.91197C139.028 8.6243 140.631 7.6257 142.471 6.91617C144.31 6.20665 146.308 5.85188 148.462 5.85188C150.644 5.85188 152.641 6.20665 154.454 6.91617C156.294 7.6257 157.883 8.6243 159.224 9.91197C160.59 11.1996 161.654 12.7107 162.417 14.4451C163.179 16.1532 163.56 18.0453 163.56 20.1213C163.56 22.1711 163.179 24.0763 162.417 25.837C161.654 27.5714 160.59 29.0824 159.224 30.3701C157.883 31.6315 156.294 32.6169 154.454 33.3264C152.641 34.036 150.657 34.3907 148.502 34.3907ZM148.462 28.951C149.698 28.951 150.828 28.7408 151.852 28.3203C152.904 27.8999 153.823 27.2954 154.612 26.5071C155.4 25.7187 156.004 24.7858 156.425 23.7084C156.872 22.6309 157.095 21.4353 157.095 20.1213C157.095 18.8074 156.872 17.6117 156.425 16.5342C156.004 15.4568 155.4 14.5239 154.612 13.7355C153.85 12.9472 152.943 12.3428 151.892 11.9223C150.841 11.5018 149.698 11.2916 148.462 11.2916C147.227 11.2916 146.084 11.5018 145.033 11.9223C144.008 12.3428 143.102 12.9472 142.313 13.7355C141.525 14.5239 140.907 15.4568 140.461 16.5342C140.04 17.6117 139.83 18.8074 139.83 20.1213C139.83 21.409 140.04 22.6047 140.461 23.7084C140.907 24.7858 141.512 25.7187 142.274 26.5071C143.062 27.2954 143.982 27.8999 145.033 28.3203C146.084 28.7408 147.227 28.951 148.462 28.951Z" fill="#363636"/>
<path d="M180.46 34.2331C178.594 34.2331 176.991 33.8389 175.651 33.0505C174.311 32.2621 173.286 31.0665 172.577 29.4634C171.867 27.8342 171.512 25.7844 171.512 23.3142C171.512 20.8177 171.88 18.7679 172.616 17.1649C173.378 15.5619 174.429 14.3662 175.769 13.5779C177.11 12.7895 178.673 12.3953 180.46 12.3953C182.457 12.3953 184.244 12.8421 185.821 13.7355C187.424 14.629 188.686 15.8904 189.605 17.5197C190.551 19.149 191.024 21.0805 191.024 23.3142C191.024 25.5216 190.551 27.44 189.605 29.0693C188.686 30.6986 187.424 31.9731 185.821 32.8928C184.244 33.7863 182.457 34.2331 180.46 34.2331ZM167.925 33.9177V4.66933H174.074V17.0073L173.68 23.2748L173.799 29.5817V33.9177H167.925ZM179.396 29.1875C180.421 29.1875 181.327 28.951 182.116 28.478C182.93 28.005 183.574 27.3349 184.047 26.4677C184.547 25.5742 184.796 24.523 184.796 23.3142C184.796 22.0791 184.547 21.0279 184.047 20.1607C183.574 19.2935 182.93 18.6234 182.116 18.1504C181.327 17.6774 180.421 17.4409 179.396 17.4409C178.371 17.4409 177.451 17.6774 176.637 18.1504C175.822 18.6234 175.178 19.2935 174.705 20.1607C174.232 21.0279 173.996 22.0791 173.996 23.3142C173.996 24.523 174.232 25.5742 174.705 26.4677C175.178 27.3349 175.822 28.005 176.637 28.478C177.451 28.951 178.371 29.1875 179.396 29.1875Z" fill="#363636"/>
<path d="M202.276 34.2331C200.462 34.2331 198.715 34.0228 197.033 33.6024C195.377 33.1556 194.063 32.6038 193.091 31.9468L195.141 27.532C196.113 28.1364 197.256 28.6357 198.57 29.0298C199.91 29.3977 201.224 29.5817 202.512 29.5817C203.931 29.5817 204.93 29.4109 205.508 29.0693C206.112 28.7276 206.414 28.2546 206.414 27.6502C206.414 27.1509 206.178 26.783 205.705 26.5465C205.258 26.2837 204.654 26.0866 203.892 25.9552C203.13 25.8238 202.289 25.6924 201.369 25.561C200.475 25.4296 199.569 25.2588 198.649 25.0486C197.729 24.8121 196.888 24.4705 196.126 24.0237C195.364 23.577 194.747 22.9726 194.274 22.2105C193.827 21.4484 193.603 20.4629 193.603 19.2541C193.603 17.9139 193.985 16.7313 194.747 15.7065C195.535 14.6816 196.665 13.8801 198.137 13.3019C199.608 12.6975 201.369 12.3953 203.419 12.3953C204.864 12.3953 206.336 12.553 207.833 12.8683C209.331 13.1837 210.58 13.6436 211.578 14.248L209.528 18.6234C208.504 18.019 207.466 17.6117 206.414 17.4014C205.39 17.1649 204.391 17.0467 203.419 17.0467C202.052 17.0467 201.054 17.2306 200.423 17.5985C199.792 17.9664 199.477 18.4395 199.477 19.0176C199.477 19.5432 199.7 19.9374 200.147 20.2001C200.62 20.4629 201.237 20.6732 202 20.8308C202.762 20.9885 203.589 21.133 204.483 21.2644C205.403 21.3696 206.322 21.5404 207.242 21.7769C208.162 22.0134 208.99 22.355 209.726 22.8018C210.488 23.2222 211.105 23.8135 211.578 24.5756C212.051 25.3114 212.288 26.2837 212.288 27.4925C212.288 28.8065 211.894 29.9759 211.105 31.0008C210.317 31.9994 209.174 32.7877 207.676 33.3659C206.204 33.944 204.404 34.2331 202.276 34.2331Z" fill="#363636"/>
<path d="M226.606 34.2331C224.189 34.2331 222.06 33.76 220.221 32.814C218.407 31.868 217.002 30.5803 216.003 28.951C215.004 27.2954 214.505 25.4165 214.505 23.3142C214.505 21.1856 214.991 19.3067 215.964 17.6774C216.962 16.0218 218.315 14.7341 220.024 13.8144C221.732 12.8683 223.663 12.3953 225.818 12.3953C227.894 12.3953 229.76 12.8421 231.415 13.7355C233.097 14.6027 234.424 15.8641 235.397 17.5197C236.369 19.149 236.855 21.1068 236.855 23.393C236.855 23.6295 236.842 23.9055 236.816 24.2208C236.79 24.5099 236.763 24.7858 236.737 25.0486H219.511V21.4615H233.505L231.14 22.5258C231.14 21.4221 230.916 20.4629 230.469 19.6483C230.023 18.8336 229.405 18.203 228.617 17.7562C227.828 17.2832 226.909 17.0467 225.858 17.0467C224.806 17.0467 223.873 17.2832 223.059 17.7562C222.27 18.203 221.653 18.8468 221.206 19.6877C220.759 20.5024 220.536 21.4747 220.536 22.6047V23.5507C220.536 24.707 220.786 25.7318 221.285 26.6253C221.811 27.4925 222.533 28.1626 223.453 28.6357C224.399 29.0824 225.503 29.3058 226.764 29.3058C227.894 29.3058 228.88 29.135 229.721 28.7933C230.588 28.4517 231.376 27.9393 232.086 27.256L235.357 30.8037C234.385 31.9074 233.163 32.7614 231.691 33.3659C230.22 33.944 228.525 34.2331 226.606 34.2331Z" fill="#363636"/>
<path d="M240.949 33.9177V12.7107H246.823V18.7022L245.995 16.9678C246.625 15.4699 247.637 14.34 249.03 13.5779C250.423 12.7895 252.118 12.3953 254.115 12.3953V18.0716C253.852 18.0453 253.616 18.0321 253.405 18.0321C253.195 18.0059 252.972 17.9927 252.735 17.9927C251.053 17.9927 249.687 18.4789 248.636 19.4512C247.611 20.3972 247.098 21.882 247.098 23.9055V33.9177H240.949Z" fill="#363636"/>
<path d="M264.258 33.9177L255.349 12.7107H261.696L269.106 30.9613H265.953L273.639 12.7107H279.552L270.604 33.9177H264.258Z" fill="#363636"/>
<path d="M294.376 33.9177V29.7788L293.982 28.8722V21.4615C293.982 20.1476 293.575 19.1227 292.76 18.3869C291.972 17.6511 290.75 17.2832 289.094 17.2832C287.964 17.2832 286.847 17.4671 285.744 17.835C284.666 18.1767 283.747 18.6497 282.984 19.2541L280.777 14.9575C281.933 14.1429 283.326 13.5122 284.955 13.0654C286.585 12.6187 288.24 12.3953 289.922 12.3953C293.154 12.3953 295.664 13.1574 297.451 14.6816C299.238 16.2058 300.131 18.584 300.131 21.8163V33.9177H294.376ZM287.912 34.2331C286.256 34.2331 284.837 33.9571 283.655 33.4053C282.472 32.8271 281.565 32.0519 280.935 31.0796C280.304 30.1073 279.989 29.0167 279.989 27.8079C279.989 26.5465 280.291 25.4428 280.895 24.4967C281.526 23.5507 282.511 22.8149 283.852 22.2893C285.192 21.7375 286.939 21.4615 289.094 21.4615H294.731V25.0486H289.764C288.319 25.0486 287.321 25.2851 286.769 25.7581C286.243 26.2311 285.98 26.8224 285.98 27.532C285.98 28.3203 286.282 28.951 286.887 29.424C287.518 29.8708 288.372 30.0941 289.449 30.0941C290.474 30.0941 291.394 29.8576 292.208 29.3846C293.023 28.8853 293.614 28.1626 293.982 27.2166L294.928 30.0547C294.481 31.4212 293.667 32.4592 292.484 33.1688C291.302 33.8783 289.778 34.2331 287.912 34.2331Z" fill="#363636"/>
<path d="M314.369 34.2331C311.872 34.2331 309.928 33.6024 308.535 32.341C307.142 31.0533 306.446 29.1481 306.446 26.6253V8.01989H312.595V26.5465C312.595 27.44 312.832 28.1364 313.305 28.6357C313.778 29.1087 314.421 29.3452 315.236 29.3452C316.208 29.3452 317.036 29.0824 317.719 28.5568L319.375 32.8928C318.744 33.3396 317.982 33.6812 317.089 33.9177C316.222 34.1279 315.315 34.2331 314.369 34.2331ZM303.174 17.9139V13.1837H317.877V17.9139H303.174Z" fill="#363636"/>
<path d="M322.827 33.9177V12.7107H328.976V33.9177H322.827ZM325.901 9.75429C324.771 9.75429 323.852 9.42581 323.142 8.76884C322.433 8.11186 322.078 7.29722 322.078 6.3249C322.078 5.35258 322.433 4.53794 323.142 3.88097C323.852 3.22399 324.771 2.89551 325.901 2.89551C327.031 2.89551 327.951 3.21085 328.661 3.84155C329.37 4.44596 329.725 5.23433 329.725 6.20665C329.725 7.23152 329.37 8.08559 328.661 8.76884C327.977 9.42581 327.058 9.75429 325.901 9.75429Z" fill="#363636"/>
<path d="M344.774 34.2331C342.514 34.2331 340.504 33.76 338.743 32.814C337.009 31.868 335.629 30.5803 334.604 28.951C333.606 27.2954 333.106 25.4165 333.106 23.3142C333.106 21.1856 333.606 19.3067 334.604 17.6774C335.629 16.0218 337.009 14.7341 338.743 13.8144C340.504 12.8683 342.514 12.3953 344.774 12.3953C347.008 12.3953 349.005 12.8683 350.766 13.8144C352.526 14.7341 353.906 16.0087 354.905 17.638C355.903 19.2672 356.403 21.1593 356.403 23.3142C356.403 25.4165 355.903 27.2954 354.905 28.951C353.906 30.5803 352.526 31.868 350.766 32.814C349.005 33.76 347.008 34.2331 344.774 34.2331ZM344.774 29.1875C345.799 29.1875 346.719 28.951 347.534 28.478C348.348 28.005 348.992 27.3349 349.465 26.4677C349.938 25.5742 350.175 24.523 350.175 23.3142C350.175 22.0791 349.938 21.0279 349.465 20.1607C348.992 19.2935 348.348 18.6234 347.534 18.1504C346.719 17.6774 345.799 17.4409 344.774 17.4409C343.749 17.4409 342.83 17.6774 342.015 18.1504C341.2 18.6234 340.543 19.2935 340.044 20.1607C339.571 21.0279 339.334 22.0791 339.334 23.3142C339.334 24.523 339.571 25.5742 340.044 26.4677C340.543 27.3349 341.2 28.005 342.015 28.478C342.83 28.951 343.749 29.1875 344.774 29.1875Z" fill="#363636"/>
<path d="M373.403 12.3953C375.085 12.3953 376.582 12.7369 377.896 13.4202C379.237 14.0772 380.288 15.102 381.05 16.4948C381.812 17.8613 382.193 19.622 382.193 21.7769V33.9177H376.044V22.7229C376.044 21.0148 375.663 19.7534 374.901 18.9388C374.165 18.1241 373.114 17.7168 371.747 17.7168C370.775 17.7168 369.894 17.927 369.106 18.3475C368.344 18.7417 367.74 19.3592 367.293 20.2001C366.872 21.0411 366.662 22.1185 366.662 23.4324V33.9177H360.513V12.7107H366.386V18.584L365.283 16.8102C366.045 15.3911 367.135 14.3005 368.554 13.5385C369.973 12.7764 371.589 12.3953 373.403 12.3953Z" fill="#363636"/>
<path d="M394.902 34.2331C393.088 34.2331 391.341 34.0228 389.659 33.6024C388.003 33.1556 386.69 32.6038 385.717 31.9468L387.767 27.532C388.739 28.1364 389.882 28.6357 391.196 29.0298C392.537 29.3977 393.851 29.5817 395.138 29.5817C396.557 29.5817 397.556 29.4109 398.134 29.0693C398.738 28.7276 399.041 28.2546 399.041 27.6502C399.041 27.1509 398.804 26.783 398.331 26.5465C397.884 26.2837 397.28 26.0866 396.518 25.9552C395.756 25.8238 394.915 25.6924 393.995 25.561C393.102 25.4296 392.195 25.2588 391.275 25.0486C390.355 24.8121 389.515 24.4705 388.752 24.0237C387.99 23.577 387.373 22.9726 386.9 22.2105C386.453 21.4484 386.23 20.4629 386.23 19.2541C386.23 17.9139 386.611 16.7313 387.373 15.7065C388.161 14.6816 389.291 13.8801 390.763 13.3019C392.234 12.6975 393.995 12.3953 396.045 12.3953C397.49 12.3953 398.962 12.553 400.46 12.8683C401.958 13.1837 403.206 13.6436 404.204 14.248L402.155 18.6234C401.13 18.019 400.092 17.6117 399.041 17.4014C398.016 17.1649 397.017 17.0467 396.045 17.0467C394.678 17.0467 393.68 17.2306 393.049 17.5985C392.418 17.9664 392.103 18.4395 392.103 19.0176C392.103 19.5432 392.326 19.9374 392.773 20.2001C393.246 20.4629 393.864 20.6732 394.626 20.8308C395.388 20.9885 396.216 21.133 397.109 21.2644C398.029 21.3696 398.949 21.5404 399.868 21.7769C400.788 22.0134 401.616 22.355 402.352 22.8018C403.114 23.2222 403.731 23.8135 404.204 24.5756C404.677 25.3114 404.914 26.2837 404.914 27.4925C404.914 28.8065 404.52 29.9759 403.731 31.0008C402.943 31.9994 401.8 32.7877 400.302 33.3659C398.83 33.944 397.03 34.2331 394.902 34.2331Z" fill="#363636"/>
<path d="M0.63916 0.658203H104.112V38.8447H0.63916V0.658203Z" fill="#FF3482"/>
<path d="M433.625 0.658203H537.098V38.8447H433.625V0.658203Z" fill="#FF3482"/>
</svg>
