<svg width="428" height="392" viewBox="0 0 428 392" fill="none" xmlns="http://www.w3.org/2000/svg">
<path fill-rule="evenodd" clip-rule="evenodd" d="M88.7555 44.4732C88.7555 68.7945 69.0391 88.5108 44.7178 88.5108C20.3965 88.5108 0.680176 68.7945 0.680176 44.4732C0.680176 20.1519 20.3965 0.435547 44.7178 0.435547C69.0391 0.435547 88.7555 20.1519 88.7555 44.4732ZM44.7178 76.1926C62.236 76.1926 76.4372 61.9913 76.4372 44.4732C76.4372 26.955 62.236 12.7538 44.7178 12.7538C27.1997 12.7538 12.9984 26.955 12.9984 44.4732C12.9984 61.9913 27.1997 76.1926 44.7178 76.1926Z" fill="white"/>
<path fill-rule="evenodd" clip-rule="evenodd" d="M88.7555 195.987C88.7555 220.308 69.0391 240.024 44.7178 240.024C20.3965 240.024 0.680176 220.308 0.680176 195.987C0.680176 171.666 20.3965 151.949 44.7178 151.949C69.0391 151.949 88.7555 171.666 88.7555 195.987ZM44.7178 227.706C62.236 227.706 76.4372 213.505 76.4372 195.987C76.4372 178.469 62.236 164.267 44.7178 164.267C27.1997 164.267 12.9984 178.469 12.9984 195.987C12.9984 213.505 27.1997 227.706 44.7178 227.706Z" fill="white"/>
<path d="M119.25 28.1513V7.45671H127.765C129.598 7.45671 131.164 7.75235 132.465 8.34363C133.786 8.9349 134.801 9.78239 135.51 10.8861C136.22 11.9898 136.575 13.3005 136.575 14.8181C136.575 16.3357 136.22 17.6463 135.51 18.7501C134.801 19.8538 133.786 20.7013 132.465 21.2925C131.164 21.8838 129.598 22.1795 127.765 22.1795H121.379L123.094 20.3761V28.1513H119.25ZM123.094 20.79L121.379 18.9274H127.587C129.282 18.9274 130.553 18.5727 131.401 17.8631C132.268 17.1339 132.702 16.1189 132.702 14.8181C132.702 13.4976 132.268 12.4825 131.401 11.773C130.553 11.0635 129.282 10.7087 127.587 10.7087H121.379L123.094 8.81664V20.79Z" fill="#363636"/>
<path d="M139.913 28.1513V12.3643H143.432V16.7102L143.018 15.4389C143.491 14.3746 144.23 13.5666 145.235 13.0147C146.26 12.4628 147.531 12.1869 149.049 12.1869V15.705C148.891 15.6656 148.743 15.6459 148.605 15.6459C148.467 15.6262 148.329 15.6163 148.191 15.6163C146.792 15.6163 145.678 16.0302 144.851 16.858C144.023 17.6661 143.609 18.8782 143.609 20.4943V28.1513H139.913Z" fill="#363636"/>
<path d="M159.46 28.3583C157.706 28.3583 156.168 28.0134 154.848 27.3235C153.547 26.614 152.532 25.6483 151.803 24.4263C151.093 23.2043 150.738 21.8148 150.738 20.2578C150.738 18.6811 151.083 17.2916 151.773 16.0893C152.483 14.8674 153.448 13.9115 154.67 13.2216C155.912 12.5318 157.321 12.1869 158.898 12.1869C160.435 12.1869 161.805 12.522 163.007 13.1921C164.21 13.8622 165.156 14.8082 165.845 16.0302C166.535 17.2522 166.88 18.6909 166.88 20.3465C166.88 20.5042 166.87 20.6816 166.851 20.8786C166.851 21.0757 166.841 21.263 166.821 21.4404H153.665V18.9866H164.87L163.421 19.7552C163.441 18.8486 163.254 18.0504 162.86 17.3606C162.465 16.6707 161.923 16.1287 161.234 15.7346C160.563 15.3404 159.785 15.1433 158.898 15.1433C157.991 15.1433 157.193 15.3404 156.503 15.7346C155.833 16.1287 155.301 16.6806 154.907 17.3901C154.532 18.0799 154.345 18.8979 154.345 19.8439V20.4352C154.345 21.3812 154.562 22.2189 154.996 22.9481C155.429 23.6773 156.04 24.2391 156.829 24.6332C157.617 25.0274 158.524 25.2245 159.548 25.2245C160.435 25.2245 161.234 25.0866 161.943 24.8106C162.653 24.5347 163.283 24.1011 163.835 23.5098L165.816 25.7862C165.106 26.614 164.21 27.2546 163.126 27.7079C162.061 28.1415 160.839 28.3583 159.46 28.3583Z" fill="#363636"/>
<path d="M175.308 28.3583C173.987 28.3583 172.716 28.1907 171.494 27.8557C170.292 27.5009 169.336 27.0772 168.627 26.5844L170.046 23.7759C170.755 24.2292 171.603 24.6037 172.588 24.8993C173.574 25.195 174.559 25.3428 175.544 25.3428C176.707 25.3428 177.545 25.1851 178.057 24.8697C178.59 24.5544 178.856 24.1307 178.856 23.5985C178.856 23.1649 178.678 22.8397 178.323 22.6229C177.969 22.3864 177.506 22.209 176.934 22.0908C176.362 21.9725 175.722 21.8641 175.012 21.7656C174.322 21.667 173.623 21.5389 172.913 21.3812C172.223 21.2038 171.593 20.9575 171.021 20.6421C170.45 20.3071 169.986 19.8636 169.632 19.3118C169.277 18.7599 169.1 18.0307 169.1 17.1241C169.1 16.1189 169.385 15.2517 169.957 14.5224C170.528 13.7735 171.327 13.2019 172.352 12.8077C173.396 12.3939 174.628 12.1869 176.047 12.1869C177.111 12.1869 178.185 12.3052 179.269 12.5417C180.353 12.7782 181.25 13.1132 181.96 13.5468L180.541 16.3554C179.792 15.9021 179.033 15.5966 178.264 15.4389C177.515 15.2615 176.766 15.1728 176.017 15.1728C174.894 15.1728 174.056 15.3404 173.505 15.6754C172.972 16.0105 172.706 16.4342 172.706 16.9467C172.706 17.4197 172.884 17.7745 173.238 18.011C173.593 18.2475 174.056 18.4347 174.628 18.5727C175.2 18.7106 175.83 18.8289 176.52 18.9274C177.23 19.0063 177.929 19.1344 178.619 19.3118C179.309 19.4892 179.94 19.7355 180.511 20.0509C181.102 20.3465 181.575 20.7702 181.93 21.3221C182.285 21.874 182.462 22.5933 182.462 23.4803C182.462 24.4657 182.167 25.3231 181.575 26.0523C181.004 26.7815 180.186 27.3531 179.122 27.767C178.057 28.1612 176.786 28.3583 175.308 28.3583Z" fill="#363636"/>
<path d="M193.065 28.3583C191.311 28.3583 189.774 28.0134 188.453 27.3235C187.153 26.614 186.138 25.6483 185.408 24.4263C184.699 23.2043 184.344 21.8148 184.344 20.2578C184.344 18.6811 184.689 17.2916 185.379 16.0893C186.088 14.8674 187.054 13.9115 188.276 13.2216C189.518 12.5318 190.927 12.1869 192.504 12.1869C194.041 12.1869 195.411 12.522 196.613 13.1921C197.815 13.8622 198.761 14.8082 199.451 16.0302C200.141 17.2522 200.486 18.6909 200.486 20.3465C200.486 20.5042 200.476 20.6816 200.456 20.8786C200.456 21.0757 200.446 21.263 200.427 21.4404H187.271V18.9866H198.476L197.027 19.7552C197.047 18.8486 196.859 18.0504 196.465 17.3606C196.071 16.6707 195.529 16.1287 194.839 15.7346C194.169 15.3404 193.391 15.1433 192.504 15.1433C191.597 15.1433 190.799 15.3404 190.109 15.7346C189.439 16.1287 188.907 16.6806 188.513 17.3901C188.138 18.0799 187.951 18.8979 187.951 19.8439V20.4352C187.951 21.3812 188.168 22.2189 188.601 22.9481C189.035 23.6773 189.646 24.2391 190.434 24.6332C191.223 25.0274 192.129 25.2245 193.154 25.2245C194.041 25.2245 194.839 25.0866 195.549 24.8106C196.258 24.5347 196.889 24.1011 197.441 23.5098L199.422 25.7862C198.712 26.614 197.815 27.2546 196.731 27.7079C195.667 28.1415 194.445 28.3583 193.065 28.3583Z" fill="#363636"/>
<path d="M212.993 12.1869C214.255 12.1869 215.378 12.4333 216.364 12.926C217.369 13.4187 218.157 14.1775 218.729 15.2024C219.3 16.2076 219.586 17.5084 219.586 19.1048V28.1513H215.891V19.5778C215.891 18.1785 215.556 17.1339 214.885 16.4441C214.235 15.7543 213.319 15.4094 212.136 15.4094C211.269 15.4094 210.5 15.5867 209.83 15.9415C209.16 16.2963 208.638 16.8284 208.263 17.5379C207.908 18.2278 207.731 19.1048 207.731 20.1691V28.1513H204.036V12.3643H207.554V16.6215L206.933 15.3207C207.485 14.3155 208.283 13.5468 209.327 13.0147C210.392 12.4628 211.614 12.1869 212.993 12.1869Z" fill="#363636"/>
<path d="M231.546 28.3583C229.89 28.3583 228.412 28.0134 227.111 27.3235C225.83 26.614 224.825 25.6483 224.096 24.4263C223.367 23.2043 223.002 21.8148 223.002 20.2578C223.002 18.6811 223.367 17.2916 224.096 16.0893C224.825 14.8674 225.83 13.9115 227.111 13.2216C228.412 12.5318 229.89 12.1869 231.546 12.1869C233.083 12.1869 234.433 12.5023 235.596 13.1329C236.779 13.7439 237.676 14.6506 238.287 15.8528L235.448 17.5084C234.975 16.7594 234.394 16.2076 233.704 15.8528C233.034 15.498 232.305 15.3207 231.516 15.3207C230.61 15.3207 229.792 15.5178 229.063 15.9119C228.333 16.3061 227.762 16.8777 227.348 17.6266C226.934 18.3559 226.727 19.2329 226.727 20.2578C226.727 21.2827 226.934 22.1696 227.348 22.9185C227.762 23.6478 228.333 24.2095 229.063 24.6037C229.792 24.9979 230.61 25.195 231.516 25.195C232.305 25.195 233.034 25.0176 233.704 24.6628C234.394 24.308 234.975 23.7562 235.448 23.0072L238.287 24.6628C237.676 25.8454 236.779 26.7618 235.596 27.4122C234.433 28.0429 233.083 28.3583 231.546 28.3583Z" fill="#363636"/>
<path d="M248.671 28.3583C246.916 28.3583 245.379 28.0134 244.059 27.3235C242.758 26.614 241.743 25.6483 241.014 24.4263C240.304 23.2043 239.949 21.8148 239.949 20.2578C239.949 18.6811 240.294 17.2916 240.984 16.0893C241.694 14.8674 242.659 13.9115 243.881 13.2216C245.123 12.5318 246.532 12.1869 248.109 12.1869C249.646 12.1869 251.016 12.522 252.218 13.1921C253.42 13.8622 254.367 14.8082 255.056 16.0302C255.746 17.2522 256.091 18.6909 256.091 20.3465C256.091 20.5042 256.081 20.6816 256.061 20.8786C256.061 21.0757 256.052 21.263 256.032 21.4404H242.876V18.9866H254.081L252.632 19.7552C252.652 18.8486 252.465 18.0504 252.07 17.3606C251.676 16.6707 251.134 16.1287 250.444 15.7346C249.774 15.3404 248.996 15.1433 248.109 15.1433C247.202 15.1433 246.404 15.3404 245.714 15.7346C245.044 16.1287 244.512 16.6806 244.118 17.3901C243.743 18.0799 243.556 18.8979 243.556 19.8439V20.4352C243.556 21.3812 243.773 22.2189 244.206 22.9481C244.64 23.6773 245.251 24.2391 246.039 24.6332C246.828 25.0274 247.734 25.2245 248.759 25.2245C249.646 25.2245 250.444 25.0866 251.154 24.8106C251.863 24.5347 252.494 24.1011 253.046 23.5098L255.027 25.7862C254.317 26.614 253.42 27.2546 252.336 27.7079C251.272 28.1415 250.05 28.3583 248.671 28.3583Z" fill="#363636"/>
<path d="M274.907 28.3583C273.29 28.3583 271.852 28.0134 270.59 27.3235C269.329 26.614 268.334 25.6483 267.604 24.4263C266.875 23.2043 266.51 21.8148 266.51 20.2578C266.51 18.6811 266.875 17.2916 267.604 16.0893C268.334 14.8674 269.329 13.9115 270.59 13.2216C271.852 12.5318 273.29 12.1869 274.907 12.1869C276.542 12.1869 277.991 12.5318 279.252 13.2216C280.533 13.9115 281.529 14.8575 282.238 16.0598C282.968 17.262 283.332 18.6614 283.332 20.2578C283.332 21.8148 282.968 23.2043 282.238 24.4263C281.529 25.6483 280.533 26.614 279.252 27.3235C277.991 28.0134 276.542 28.3583 274.907 28.3583ZM274.907 25.195C275.813 25.195 276.621 24.9979 277.331 24.6037C278.04 24.2095 278.592 23.6379 278.986 22.889C279.4 22.14 279.607 21.263 279.607 20.2578C279.607 19.2329 279.4 18.3559 278.986 17.6266C278.592 16.8777 278.04 16.3061 277.331 15.9119C276.621 15.5178 275.823 15.3207 274.936 15.3207C274.029 15.3207 273.221 15.5178 272.512 15.9119C271.822 16.3061 271.27 16.8777 270.856 17.6266C270.442 18.3559 270.235 19.2329 270.235 20.2578C270.235 21.263 270.442 22.14 270.856 22.889C271.27 23.6379 271.822 24.2095 272.512 24.6037C273.221 24.9979 274.02 25.195 274.907 25.195Z" fill="#363636"/>
<path d="M287.369 28.1513V11.4774C287.369 9.82181 287.851 8.5013 288.817 7.51584C289.803 6.51067 291.202 6.00809 293.015 6.00809C293.666 6.00809 294.277 6.07707 294.848 6.21504C295.439 6.353 295.932 6.5698 296.326 6.86544L295.321 9.64443C295.045 9.42763 294.73 9.26995 294.375 9.17141C294.02 9.05315 293.656 8.99403 293.281 8.99403C292.513 8.99403 291.931 9.21083 291.537 9.64443C291.143 10.0583 290.946 10.689 290.946 11.5365V13.3103L291.064 14.9659V28.1513H287.369ZM284.767 15.4389V12.4825H295.292V15.4389H284.767Z" fill="#363636"/>
<path d="M310.828 28.3583C309.507 28.3583 308.236 28.1907 307.014 27.8557C305.812 27.5009 304.856 27.0772 304.146 26.5844L305.565 23.7759C306.275 24.2292 307.122 24.6037 308.108 24.8993C309.093 25.195 310.079 25.3428 311.064 25.3428C312.227 25.3428 313.065 25.1851 313.577 24.8697C314.109 24.5544 314.375 24.1307 314.375 23.5985C314.375 23.1649 314.198 22.8397 313.843 22.6229C313.488 22.3864 313.025 22.209 312.454 22.0908C311.882 21.9725 311.242 21.8641 310.532 21.7656C309.842 21.667 309.142 21.5389 308.433 21.3812C307.743 21.2038 307.112 20.9575 306.541 20.6421C305.969 20.3071 305.506 19.8636 305.151 19.3118C304.797 18.7599 304.619 18.0307 304.619 17.1241C304.619 16.1189 304.905 15.2517 305.477 14.5224C306.048 13.7735 306.846 13.2019 307.871 12.8077C308.916 12.3939 310.148 12.1869 311.567 12.1869C312.631 12.1869 313.705 12.3052 314.789 12.5417C315.873 12.7782 316.77 13.1132 317.479 13.5468L316.06 16.3554C315.311 15.9021 314.553 15.5966 313.784 15.4389C313.035 15.2615 312.286 15.1728 311.537 15.1728C310.414 15.1728 309.576 15.3404 309.024 15.6754C308.492 16.0105 308.226 16.4342 308.226 16.9467C308.226 17.4197 308.403 17.7745 308.758 18.011C309.113 18.2475 309.576 18.4347 310.148 18.5727C310.719 18.7106 311.35 18.8289 312.04 18.9274C312.749 19.0063 313.449 19.1344 314.139 19.3118C314.829 19.4892 315.459 19.7355 316.031 20.0509C316.622 20.3465 317.095 20.7702 317.45 21.3221C317.805 21.874 317.982 22.5933 317.982 23.4803C317.982 24.4657 317.686 25.3231 317.095 26.0523C316.524 26.7815 315.706 27.3531 314.641 27.767C313.577 28.1612 312.306 28.3583 310.828 28.3583Z" fill="#363636"/>
<path d="M327.107 28.3583C325.372 28.3583 324.032 27.9148 323.086 27.0279C322.14 26.1213 321.667 24.7909 321.667 23.0368V8.87577H325.363V22.9481C325.363 23.6971 325.55 24.2785 325.924 24.6924C326.318 25.1063 326.86 25.3132 327.55 25.3132C328.378 25.3132 329.068 25.0964 329.62 24.6628L330.654 27.294C330.221 27.6487 329.689 27.9148 329.058 28.0922C328.427 28.2696 327.777 28.3583 327.107 28.3583ZM319.066 15.4389V12.4825H329.59V15.4389H319.066Z" fill="#363636"/>
<path d="M343.421 28.1513V24.9584L343.214 24.2785V18.6909C343.214 17.6069 342.889 16.7693 342.238 16.178C341.588 15.567 340.603 15.2615 339.282 15.2615C338.395 15.2615 337.518 15.3995 336.651 15.6754C335.803 15.9514 335.084 16.3357 334.493 16.8284L333.044 14.1381C333.892 13.4877 334.897 13.0048 336.06 12.6895C337.242 12.3544 338.464 12.1869 339.725 12.1869C342.012 12.1869 343.776 12.7388 345.017 13.8425C346.279 14.9265 346.909 16.6116 346.909 18.8979V28.1513H343.421ZM338.454 28.3583C337.272 28.3583 336.237 28.1612 335.35 27.767C334.463 27.3531 333.773 26.7914 333.281 26.0819C332.808 25.3526 332.571 24.5347 332.571 23.6281C332.571 22.7412 332.778 21.9429 333.192 21.2334C333.625 20.5239 334.325 19.9622 335.291 19.5483C336.257 19.1344 337.538 18.9274 339.134 18.9274H343.717V21.3812H339.4C338.139 21.3812 337.291 21.5882 336.858 22.0021C336.424 22.3962 336.207 22.889 336.207 23.4803C336.207 24.1504 336.473 24.6825 337.006 25.0767C337.538 25.4709 338.277 25.668 339.223 25.668C340.129 25.668 340.938 25.461 341.647 25.0471C342.376 24.6332 342.899 24.0223 343.214 23.2142L343.835 25.4315C343.48 26.3578 342.84 27.0772 341.913 27.5896C341.007 28.1021 339.854 28.3583 338.454 28.3583Z" fill="#363636"/>
<path d="M351.652 28.1513V12.3643H355.348V28.1513H351.652ZM353.515 9.76268C352.825 9.76268 352.253 9.54588 351.8 9.11228C351.366 8.67868 351.15 8.15639 351.15 7.5454C351.15 6.91471 351.366 6.39242 351.8 5.97853C352.253 5.54493 352.825 5.32812 353.515 5.32812C354.204 5.32812 354.766 5.53507 355.2 5.94896C355.653 6.34315 355.88 6.84573 355.88 7.45671C355.88 8.10711 355.663 8.65897 355.229 9.11228C354.796 9.54588 354.224 9.76268 353.515 9.76268Z" fill="#363636"/>
<path d="M369.156 12.1869C370.417 12.1869 371.541 12.4333 372.526 12.926C373.531 13.4187 374.319 14.1775 374.891 15.2024C375.463 16.2076 375.748 17.5084 375.748 19.1048V28.1513H372.053V19.5778C372.053 18.1785 371.718 17.1339 371.048 16.4441C370.397 15.7543 369.481 15.4094 368.298 15.4094C367.431 15.4094 366.662 15.5867 365.992 15.9415C365.322 16.2963 364.8 16.8284 364.425 17.5379C364.071 18.2278 363.893 19.1048 363.893 20.1691V28.1513H360.198V12.3643H363.716V16.6215L363.095 15.3207C363.647 14.3155 364.445 13.5468 365.49 13.0147C366.554 12.4628 367.776 12.1869 369.156 12.1869Z" fill="#363636"/>
<path d="M385.314 28.3583C383.994 28.3583 382.723 28.1907 381.501 27.8557C380.298 27.5009 379.342 27.0772 378.633 26.5844L380.052 23.7759C380.762 24.2292 381.609 24.6037 382.594 24.8993C383.58 25.195 384.565 25.3428 385.551 25.3428C386.714 25.3428 387.551 25.1851 388.064 24.8697C388.596 24.5544 388.862 24.1307 388.862 23.5985C388.862 23.1649 388.685 22.8397 388.33 22.6229C387.975 22.3864 387.512 22.209 386.94 22.0908C386.369 21.9725 385.728 21.8641 385.019 21.7656C384.329 21.667 383.629 21.5389 382.92 21.3812C382.23 21.2038 381.599 20.9575 381.028 20.6421C380.456 20.3071 379.993 19.8636 379.638 19.3118C379.283 18.7599 379.106 18.0307 379.106 17.1241C379.106 16.1189 379.392 15.2517 379.963 14.5224C380.535 13.7735 381.333 13.2019 382.358 12.8077C383.403 12.3939 384.634 12.1869 386.053 12.1869C387.118 12.1869 388.192 12.3052 389.276 12.5417C390.36 12.7782 391.257 13.1132 391.966 13.5468L390.547 16.3554C389.798 15.9021 389.039 15.5966 388.271 15.4389C387.522 15.2615 386.773 15.1728 386.024 15.1728C384.9 15.1728 384.063 15.3404 383.511 15.6754C382.979 16.0105 382.713 16.4342 382.713 16.9467C382.713 17.4197 382.89 17.7745 383.245 18.011C383.6 18.2475 384.063 18.4347 384.634 18.5727C385.206 18.7106 385.837 18.8289 386.526 18.9274C387.236 19.0063 387.936 19.1344 388.625 19.3118C389.315 19.4892 389.946 19.7355 390.518 20.0509C391.109 20.3465 391.582 20.7702 391.937 21.3221C392.291 21.874 392.469 22.5933 392.469 23.4803C392.469 24.4657 392.173 25.3231 391.582 26.0523C391.01 26.7815 390.192 27.3531 389.128 27.767C388.064 28.1612 386.793 28.3583 385.314 28.3583Z" fill="#363636"/>
<path d="M119.25 179.666V158.971H127.765C129.598 158.971 131.164 159.267 132.465 159.858C133.786 160.449 134.801 161.297 135.51 162.4C136.22 163.504 136.575 164.815 136.575 166.332C136.575 167.85 136.22 169.161 135.51 170.264C134.801 171.368 133.786 172.216 132.465 172.807C131.164 173.398 129.598 173.694 127.765 173.694H121.379L123.094 171.89V179.666H119.25ZM123.094 172.304L121.379 170.442H127.587C129.282 170.442 130.553 170.087 131.401 169.378C132.268 168.648 132.702 167.633 132.702 166.332C132.702 165.012 132.268 163.997 131.401 163.287C130.553 162.578 129.282 162.223 127.587 162.223H121.379L123.094 160.331V172.304Z" fill="#363636"/>
<path d="M139.913 179.666V163.879H143.432V168.225L143.018 166.953C143.491 165.889 144.23 165.081 145.235 164.529C146.26 163.977 147.531 163.701 149.049 163.701V167.219C148.891 167.18 148.743 167.16 148.605 167.16C148.467 167.141 148.329 167.131 148.191 167.131C146.792 167.131 145.678 167.545 144.851 168.372C144.023 169.18 143.609 170.393 143.609 172.009V179.666H139.913Z" fill="#363636"/>
<path d="M159.46 179.873C157.706 179.873 156.168 179.528 154.848 178.838C153.547 178.128 152.532 177.163 151.803 175.941C151.093 174.719 150.738 173.329 150.738 171.772C150.738 170.195 151.083 168.806 151.773 167.604C152.483 166.382 153.448 165.426 154.67 164.736C155.912 164.046 157.321 163.701 158.898 163.701C160.435 163.701 161.805 164.036 163.007 164.706C164.21 165.377 165.156 166.323 165.845 167.545C166.535 168.767 166.88 170.205 166.88 171.861C166.88 172.019 166.87 172.196 166.851 172.393C166.851 172.59 166.841 172.777 166.821 172.955H153.665V170.501H164.87L163.421 171.27C163.441 170.363 163.254 169.565 162.86 168.875C162.465 168.185 161.923 167.643 161.234 167.249C160.563 166.855 159.785 166.658 158.898 166.658C157.991 166.658 157.193 166.855 156.503 167.249C155.833 167.643 155.301 168.195 154.907 168.904C154.532 169.594 154.345 170.412 154.345 171.358V171.95C154.345 172.896 154.562 173.733 154.996 174.462C155.429 175.192 156.04 175.753 156.829 176.148C157.617 176.542 158.524 176.739 159.548 176.739C160.435 176.739 161.234 176.601 161.943 176.325C162.653 176.049 163.283 175.615 163.835 175.024L165.816 177.301C165.106 178.128 164.21 178.769 163.126 179.222C162.061 179.656 160.839 179.873 159.46 179.873Z" fill="#363636"/>
<path d="M175.308 179.873C173.987 179.873 172.716 179.705 171.494 179.37C170.292 179.015 169.336 178.592 168.627 178.099L170.046 175.29C170.755 175.744 171.603 176.118 172.588 176.414C173.574 176.709 174.559 176.857 175.544 176.857C176.707 176.857 177.545 176.699 178.057 176.384C178.59 176.069 178.856 175.645 178.856 175.113C178.856 174.679 178.678 174.354 178.323 174.137C177.969 173.901 177.506 173.723 176.934 173.605C176.362 173.487 175.722 173.378 175.012 173.28C174.322 173.181 173.623 173.053 172.913 172.896C172.223 172.718 171.593 172.472 171.021 172.157C170.45 171.821 169.986 171.378 169.632 170.826C169.277 170.274 169.1 169.545 169.1 168.638C169.1 167.633 169.385 166.766 169.957 166.037C170.528 165.288 171.327 164.716 172.352 164.322C173.396 163.908 174.628 163.701 176.047 163.701C177.111 163.701 178.185 163.82 179.269 164.056C180.353 164.293 181.25 164.628 181.96 165.061L180.541 167.87C179.792 167.416 179.033 167.111 178.264 166.953C177.515 166.776 176.766 166.687 176.017 166.687C174.894 166.687 174.056 166.855 173.505 167.19C172.972 167.525 172.706 167.949 172.706 168.461C172.706 168.934 172.884 169.289 173.238 169.525C173.593 169.762 174.056 169.949 174.628 170.087C175.2 170.225 175.83 170.343 176.52 170.442C177.23 170.521 177.929 170.649 178.619 170.826C179.309 171.004 179.94 171.25 180.511 171.565C181.102 171.861 181.575 172.285 181.93 172.836C182.285 173.388 182.462 174.108 182.462 174.995C182.462 175.98 182.167 176.837 181.575 177.567C181.004 178.296 180.186 178.867 179.122 179.281C178.057 179.676 176.786 179.873 175.308 179.873Z" fill="#363636"/>
<path d="M193.065 179.873C191.311 179.873 189.774 179.528 188.453 178.838C187.153 178.128 186.138 177.163 185.408 175.941C184.699 174.719 184.344 173.329 184.344 171.772C184.344 170.195 184.689 168.806 185.379 167.604C186.088 166.382 187.054 165.426 188.276 164.736C189.518 164.046 190.927 163.701 192.504 163.701C194.041 163.701 195.411 164.036 196.613 164.706C197.815 165.377 198.761 166.323 199.451 167.545C200.141 168.767 200.486 170.205 200.486 171.861C200.486 172.019 200.476 172.196 200.456 172.393C200.456 172.59 200.446 172.777 200.427 172.955H187.271V170.501H198.476L197.027 171.27C197.047 170.363 196.859 169.565 196.465 168.875C196.071 168.185 195.529 167.643 194.839 167.249C194.169 166.855 193.391 166.658 192.504 166.658C191.597 166.658 190.799 166.855 190.109 167.249C189.439 167.643 188.907 168.195 188.513 168.904C188.138 169.594 187.951 170.412 187.951 171.358V171.95C187.951 172.896 188.168 173.733 188.601 174.462C189.035 175.192 189.646 175.753 190.434 176.148C191.223 176.542 192.129 176.739 193.154 176.739C194.041 176.739 194.839 176.601 195.549 176.325C196.258 176.049 196.889 175.615 197.441 175.024L199.422 177.301C198.712 178.128 197.815 178.769 196.731 179.222C195.667 179.656 194.445 179.873 193.065 179.873Z" fill="#363636"/>
<path d="M212.993 163.701C214.255 163.701 215.378 163.948 216.364 164.44C217.369 164.933 218.157 165.692 218.729 166.717C219.3 167.722 219.586 169.023 219.586 170.619V179.666H215.891V171.092C215.891 169.693 215.556 168.648 214.885 167.958C214.235 167.269 213.319 166.924 212.136 166.924C211.269 166.924 210.5 167.101 209.83 167.456C209.16 167.811 208.638 168.343 208.263 169.052C207.908 169.742 207.731 170.619 207.731 171.683V179.666H204.036V163.879H207.554V168.136L206.933 166.835C207.485 165.83 208.283 165.061 209.327 164.529C210.392 163.977 211.614 163.701 212.993 163.701Z" fill="#363636"/>
<path d="M231.546 179.873C229.89 179.873 228.412 179.528 227.111 178.838C225.83 178.128 224.825 177.163 224.096 175.941C223.367 174.719 223.002 173.329 223.002 171.772C223.002 170.195 223.367 168.806 224.096 167.604C224.825 166.382 225.83 165.426 227.111 164.736C228.412 164.046 229.89 163.701 231.546 163.701C233.083 163.701 234.433 164.017 235.596 164.647C236.779 165.258 237.676 166.165 238.287 167.367L235.448 169.023C234.975 168.274 234.394 167.722 233.704 167.367C233.034 167.012 232.305 166.835 231.516 166.835C230.61 166.835 229.792 167.032 229.063 167.426C228.333 167.82 227.762 168.392 227.348 169.141C226.934 169.87 226.727 170.747 226.727 171.772C226.727 172.797 226.934 173.684 227.348 174.433C227.762 175.162 228.333 175.724 229.063 176.118C229.792 176.512 230.61 176.709 231.516 176.709C232.305 176.709 233.034 176.532 233.704 176.177C234.394 175.822 234.975 175.271 235.448 174.522L238.287 176.177C237.676 177.36 236.779 178.276 235.596 178.927C234.433 179.557 233.083 179.873 231.546 179.873Z" fill="#363636"/>
<path d="M248.671 179.873C246.916 179.873 245.379 179.528 244.059 178.838C242.758 178.128 241.743 177.163 241.014 175.941C240.304 174.719 239.949 173.329 239.949 171.772C239.949 170.195 240.294 168.806 240.984 167.604C241.694 166.382 242.659 165.426 243.881 164.736C245.123 164.046 246.532 163.701 248.109 163.701C249.646 163.701 251.016 164.036 252.218 164.706C253.42 165.377 254.367 166.323 255.056 167.545C255.746 168.767 256.091 170.205 256.091 171.861C256.091 172.019 256.081 172.196 256.061 172.393C256.061 172.59 256.052 172.777 256.032 172.955H242.876V170.501H254.081L252.632 171.27C252.652 170.363 252.465 169.565 252.07 168.875C251.676 168.185 251.134 167.643 250.444 167.249C249.774 166.855 248.996 166.658 248.109 166.658C247.202 166.658 246.404 166.855 245.714 167.249C245.044 167.643 244.512 168.195 244.118 168.904C243.743 169.594 243.556 170.412 243.556 171.358V171.95C243.556 172.896 243.773 173.733 244.206 174.462C244.64 175.192 245.251 175.753 246.039 176.148C246.828 176.542 247.734 176.739 248.759 176.739C249.646 176.739 250.444 176.601 251.154 176.325C251.863 176.049 252.494 175.615 253.046 175.024L255.027 177.301C254.317 178.128 253.42 178.769 252.336 179.222C251.272 179.656 250.05 179.873 248.671 179.873Z" fill="#363636"/>
<path d="M274.907 179.873C273.29 179.873 271.852 179.528 270.59 178.838C269.329 178.128 268.334 177.163 267.604 175.941C266.875 174.719 266.51 173.329 266.51 171.772C266.51 170.195 266.875 168.806 267.604 167.604C268.334 166.382 269.329 165.426 270.59 164.736C271.852 164.046 273.29 163.701 274.907 163.701C276.542 163.701 277.991 164.046 279.252 164.736C280.533 165.426 281.529 166.372 282.238 167.574C282.968 168.776 283.332 170.176 283.332 171.772C283.332 173.329 282.968 174.719 282.238 175.941C281.529 177.163 280.533 178.128 279.252 178.838C277.991 179.528 276.542 179.873 274.907 179.873ZM274.907 176.709C275.813 176.709 276.621 176.512 277.331 176.118C278.04 175.724 278.592 175.152 278.986 174.403C279.4 173.654 279.607 172.777 279.607 171.772C279.607 170.747 279.4 169.87 278.986 169.141C278.592 168.392 278.04 167.82 277.331 167.426C276.621 167.032 275.823 166.835 274.936 166.835C274.029 166.835 273.221 167.032 272.512 167.426C271.822 167.82 271.27 168.392 270.856 169.141C270.442 169.87 270.235 170.747 270.235 171.772C270.235 172.777 270.442 173.654 270.856 174.403C271.27 175.152 271.822 175.724 272.512 176.118C273.221 176.512 274.02 176.709 274.907 176.709Z" fill="#363636"/>
<path d="M287.369 179.666V162.992C287.369 161.336 287.851 160.016 288.817 159.03C289.803 158.025 291.202 157.522 293.015 157.522C293.666 157.522 294.277 157.591 294.848 157.729C295.439 157.867 295.932 158.084 296.326 158.38L295.321 161.159C295.045 160.942 294.73 160.784 294.375 160.686C294.02 160.568 293.656 160.508 293.281 160.508C292.513 160.508 291.931 160.725 291.537 161.159C291.143 161.573 290.946 162.203 290.946 163.051V164.825L291.064 166.48V179.666H287.369ZM284.767 166.953V163.997H295.292V166.953H284.767Z" fill="#363636"/>
<path d="M313.193 179.873C311.537 179.873 310.059 179.528 308.758 178.838C307.477 178.128 306.472 177.163 305.743 175.941C305.013 174.719 304.649 173.329 304.649 171.772C304.649 170.195 305.013 168.806 305.743 167.604C306.472 166.382 307.477 165.426 308.758 164.736C310.059 164.046 311.537 163.701 313.193 163.701C314.73 163.701 316.08 164.017 317.243 164.647C318.425 165.258 319.322 166.165 319.933 167.367L317.095 169.023C316.622 168.274 316.041 167.722 315.351 167.367C314.681 167.012 313.952 166.835 313.163 166.835C312.257 166.835 311.439 167.032 310.709 167.426C309.98 167.82 309.409 168.392 308.995 169.141C308.581 169.87 308.374 170.747 308.374 171.772C308.374 172.797 308.581 173.684 308.995 174.433C309.409 175.162 309.98 175.724 310.709 176.118C311.439 176.512 312.257 176.709 313.163 176.709C313.952 176.709 314.681 176.532 315.351 176.177C316.041 175.822 316.622 175.271 317.095 174.522L319.933 176.177C319.322 177.36 318.425 178.276 317.243 178.927C316.08 179.557 314.73 179.873 313.193 179.873Z" fill="#363636"/>
<path d="M332.854 179.666V176.473L332.647 175.793V170.205C332.647 169.121 332.322 168.284 331.672 167.692C331.021 167.081 330.036 166.776 328.715 166.776C327.828 166.776 326.951 166.914 326.084 167.19C325.237 167.466 324.517 167.85 323.926 168.343L322.477 165.652C323.325 165.002 324.33 164.519 325.493 164.204C326.675 163.869 327.897 163.701 329.159 163.701C331.445 163.701 333.209 164.253 334.451 165.357C335.712 166.441 336.343 168.126 336.343 170.412V179.666H332.854ZM327.888 179.873C326.705 179.873 325.67 179.676 324.783 179.281C323.896 178.867 323.207 178.306 322.714 177.596C322.241 176.867 322.004 176.049 322.004 175.142C322.004 174.256 322.211 173.457 322.625 172.748C323.059 172.038 323.758 171.477 324.724 171.063C325.69 170.649 326.971 170.442 328.567 170.442H333.15V172.896H328.834C327.572 172.896 326.725 173.103 326.291 173.516C325.857 173.911 325.641 174.403 325.641 174.995C325.641 175.665 325.907 176.197 326.439 176.591C326.971 176.985 327.71 177.182 328.656 177.182C329.563 177.182 330.371 176.975 331.08 176.562C331.81 176.148 332.332 175.537 332.647 174.729L333.268 176.946C332.913 177.872 332.273 178.592 331.346 179.104C330.44 179.616 329.287 179.873 327.888 179.873Z" fill="#363636"/>
<path d="M341.085 179.666V157.729H344.781V179.666H341.085Z" fill="#363636"/>
<path d="M356.874 179.873C355.219 179.873 353.741 179.528 352.44 178.838C351.159 178.128 350.153 177.163 349.424 175.941C348.695 174.719 348.33 173.329 348.33 171.772C348.33 170.195 348.695 168.806 349.424 167.604C350.153 166.382 351.159 165.426 352.44 164.736C353.741 164.046 355.219 163.701 356.874 163.701C358.412 163.701 359.762 164.017 360.925 164.647C362.107 165.258 363.004 166.165 363.615 167.367L360.777 169.023C360.304 168.274 359.722 167.722 359.032 167.367C358.362 167.012 357.633 166.835 356.845 166.835C355.938 166.835 355.12 167.032 354.391 167.426C353.662 167.82 353.09 168.392 352.676 169.141C352.262 169.87 352.055 170.747 352.055 171.772C352.055 172.797 352.262 173.684 352.676 174.433C353.09 175.162 353.662 175.724 354.391 176.118C355.12 176.512 355.938 176.709 356.845 176.709C357.633 176.709 358.362 176.532 359.032 176.177C359.722 175.822 360.304 175.271 360.777 174.522L363.615 176.177C363.004 177.36 362.107 178.276 360.925 178.927C359.762 179.557 358.412 179.873 356.874 179.873Z" fill="#363636"/>
<path d="M373.491 179.873C372.15 179.873 370.968 179.626 369.943 179.134C368.918 178.621 368.12 177.852 367.548 176.828C366.977 175.783 366.691 174.472 366.691 172.896V163.879H370.387V172.393C370.387 173.812 370.702 174.876 371.333 175.586C371.983 176.276 372.899 176.621 374.082 176.621C374.949 176.621 375.698 176.443 376.329 176.088C376.979 175.734 377.482 175.202 377.837 174.492C378.211 173.783 378.398 172.905 378.398 171.861V163.879H382.094V179.666H378.576V175.409L379.197 176.709C378.664 177.734 377.886 178.523 376.861 179.074C375.836 179.607 374.713 179.873 373.491 179.873Z" fill="#363636"/>
<path d="M386.932 179.666V157.729H390.628V179.666H386.932Z" fill="#363636"/>
<path d="M402.159 179.873C400.819 179.873 399.637 179.626 398.612 179.134C397.587 178.621 396.789 177.852 396.217 176.828C395.646 175.783 395.36 174.472 395.36 172.896V163.879H399.055V172.393C399.055 173.812 399.371 174.876 400.001 175.586C400.652 176.276 401.568 176.621 402.751 176.621C403.618 176.621 404.367 176.443 404.998 176.088C405.648 175.734 406.151 175.202 406.505 174.492C406.88 173.783 407.067 172.905 407.067 171.861V163.879H410.763V179.666H407.244V175.409L407.865 176.709C407.333 177.734 406.555 178.523 405.53 179.074C404.505 179.607 403.381 179.873 402.159 179.873Z" fill="#363636"/>
<path d="M420.479 179.873C419.159 179.873 417.887 179.705 416.665 179.37C415.463 179.015 414.507 178.592 413.798 178.099L415.217 175.29C415.926 175.744 416.774 176.118 417.759 176.414C418.745 176.709 419.73 176.857 420.716 176.857C421.878 176.857 422.716 176.699 423.228 176.384C423.761 176.069 424.027 175.645 424.027 175.113C424.027 174.679 423.849 174.354 423.495 174.137C423.14 173.901 422.677 173.723 422.105 173.605C421.533 173.487 420.893 173.378 420.183 173.28C419.494 173.181 418.794 173.053 418.084 172.896C417.395 172.718 416.764 172.472 416.192 172.157C415.621 171.821 415.158 171.378 414.803 170.826C414.448 170.274 414.271 169.545 414.271 168.638C414.271 167.633 414.556 166.766 415.128 166.037C415.7 165.288 416.498 164.716 417.523 164.322C418.567 163.908 419.799 163.701 421.218 163.701C422.282 163.701 423.357 163.82 424.441 164.056C425.525 164.293 426.421 164.628 427.131 165.061L425.712 167.87C424.963 167.416 424.204 167.111 423.435 166.953C422.686 166.776 421.938 166.687 421.189 166.687C420.065 166.687 419.228 166.855 418.676 167.19C418.144 167.525 417.877 167.949 417.877 168.461C417.877 168.934 418.055 169.289 418.41 169.525C418.764 169.762 419.228 169.949 419.799 170.087C420.371 170.225 421.001 170.343 421.691 170.442C422.401 170.521 423.1 170.649 423.79 170.826C424.48 171.004 425.111 171.25 425.682 171.565C426.274 171.861 426.747 172.285 427.101 172.836C427.456 173.388 427.633 174.108 427.633 174.995C427.633 175.98 427.338 176.837 426.747 177.567C426.175 178.296 425.357 178.867 424.293 179.281C423.228 179.676 421.957 179.873 420.479 179.873Z" fill="#363636"/>
<path d="M125.666 331.476C124.049 331.476 122.502 331.25 121.024 330.796C119.546 330.323 118.373 329.722 117.506 328.993L118.836 326.007C119.664 326.657 120.689 327.199 121.911 327.633C123.133 328.067 124.384 328.283 125.666 328.283C126.75 328.283 127.627 328.165 128.297 327.929C128.967 327.692 129.46 327.377 129.775 326.983C130.09 326.569 130.248 326.106 130.248 325.593C130.248 324.962 130.021 324.46 129.568 324.085C129.115 323.691 128.523 323.386 127.794 323.169C127.085 322.932 126.286 322.716 125.399 322.518C124.532 322.321 123.655 322.095 122.768 321.838C121.901 321.563 121.103 321.218 120.374 320.804C119.664 320.37 119.083 319.799 118.629 319.089C118.176 318.38 117.949 317.473 117.949 316.369C117.949 315.246 118.245 314.221 118.836 313.295C119.447 312.349 120.364 311.6 121.586 311.048C122.827 310.476 124.394 310.19 126.286 310.19C127.528 310.19 128.76 310.348 129.982 310.663C131.204 310.979 132.268 311.432 133.175 312.023L131.963 315.009C131.036 314.457 130.08 314.053 129.095 313.797C128.11 313.521 127.163 313.383 126.257 313.383C125.193 313.383 124.325 313.511 123.655 313.768C123.005 314.024 122.522 314.359 122.207 314.773C121.911 315.187 121.763 315.66 121.763 316.192C121.763 316.823 121.98 317.335 122.414 317.729C122.867 318.104 123.448 318.399 124.158 318.616C124.887 318.833 125.695 319.05 126.582 319.266C127.469 319.464 128.346 319.69 129.213 319.946C130.1 320.203 130.898 320.538 131.608 320.952C132.337 321.365 132.919 321.927 133.352 322.637C133.805 323.346 134.032 324.243 134.032 325.327C134.032 326.431 133.727 327.456 133.116 328.402C132.524 329.328 131.608 330.077 130.366 330.648C129.125 331.2 127.558 331.476 125.666 331.476Z" fill="#363636"/>
<path d="M137.488 331.181V315.394H141.184V331.181H137.488ZM139.351 312.792C138.661 312.792 138.089 312.575 137.636 312.142C137.203 311.708 136.986 311.186 136.986 310.575C136.986 309.944 137.203 309.422 137.636 309.008C138.089 308.574 138.661 308.357 139.351 308.357C140.041 308.357 140.602 308.564 141.036 308.978C141.489 309.372 141.716 309.875 141.716 310.486C141.716 311.136 141.499 311.688 141.066 312.142C140.632 312.575 140.06 312.792 139.351 312.792Z" fill="#363636"/>
<path d="M153.188 337.123C151.73 337.123 150.301 336.926 148.902 336.532C147.522 336.157 146.389 335.605 145.502 334.876L147.157 332.097C147.847 332.669 148.715 333.122 149.759 333.457C150.823 333.812 151.898 333.989 152.982 333.989C154.716 333.989 155.987 333.585 156.795 332.777C157.603 331.989 158.007 330.796 158.007 329.2V326.391L158.303 322.814L158.185 319.237V315.394H161.703V328.786C161.703 331.644 160.974 333.743 159.515 335.083C158.057 336.443 155.948 337.123 153.188 337.123ZM152.715 330.471C151.218 330.471 149.858 330.156 148.636 329.525C147.433 328.875 146.478 327.978 145.768 326.835C145.078 325.692 144.733 324.351 144.733 322.814C144.733 321.296 145.078 319.966 145.768 318.823C146.478 317.68 147.433 316.793 148.636 316.162C149.858 315.532 151.218 315.216 152.715 315.216C154.056 315.216 155.258 315.482 156.322 316.014C157.387 316.547 158.234 317.374 158.865 318.498C159.515 319.621 159.84 321.06 159.84 322.814C159.84 324.568 159.515 326.017 158.865 327.16C158.234 328.283 157.387 329.121 156.322 329.673C155.258 330.205 154.056 330.471 152.715 330.471ZM153.277 327.337C154.204 327.337 155.031 327.15 155.761 326.776C156.49 326.381 157.051 325.849 157.446 325.179C157.86 324.489 158.066 323.701 158.066 322.814C158.066 321.927 157.86 321.149 157.446 320.479C157.051 319.789 156.49 319.266 155.761 318.912C155.031 318.537 154.204 318.35 153.277 318.35C152.351 318.35 151.513 318.537 150.764 318.912C150.035 319.266 149.463 319.789 149.05 320.479C148.655 321.149 148.458 321.927 148.458 322.814C148.458 323.701 148.655 324.489 149.05 325.179C149.463 325.849 150.035 326.381 150.764 326.776C151.513 327.15 152.351 327.337 153.277 327.337Z" fill="#363636"/>
<path d="M175.519 315.216C176.78 315.216 177.904 315.463 178.889 315.955C179.894 316.448 180.683 317.207 181.254 318.232C181.826 319.237 182.112 320.538 182.112 322.134V331.181H178.416V322.607C178.416 321.208 178.081 320.163 177.411 319.473C176.761 318.784 175.844 318.439 174.662 318.439C173.794 318.439 173.026 318.616 172.356 318.971C171.686 319.326 171.163 319.858 170.789 320.567C170.434 321.257 170.257 322.134 170.257 323.198V331.181H166.561V315.394H170.079V319.651L169.458 318.35C170.01 317.345 170.809 316.576 171.853 316.044C172.917 315.492 174.139 315.216 175.519 315.216Z" fill="#363636"/>
<path d="M202.065 331.388C200.449 331.388 199.01 331.043 197.749 330.353C196.488 329.643 195.492 328.678 194.763 327.456C194.034 326.234 193.669 324.844 193.669 323.287C193.669 321.71 194.034 320.321 194.763 319.119C195.492 317.897 196.488 316.941 197.749 316.251C199.01 315.561 200.449 315.216 202.065 315.216C203.701 315.216 205.15 315.561 206.411 316.251C207.692 316.941 208.688 317.887 209.397 319.089C210.126 320.291 210.491 321.691 210.491 323.287C210.491 324.844 210.126 326.234 209.397 327.456C208.688 328.678 207.692 329.643 206.411 330.353C205.15 331.043 203.701 331.388 202.065 331.388ZM202.065 328.224C202.972 328.224 203.78 328.027 204.49 327.633C205.199 327.239 205.751 326.667 206.145 325.918C206.559 325.169 206.766 324.292 206.766 323.287C206.766 322.262 206.559 321.385 206.145 320.656C205.751 319.907 205.199 319.335 204.49 318.941C203.78 318.547 202.982 318.35 202.095 318.35C201.188 318.35 200.38 318.547 199.671 318.941C198.981 319.335 198.429 319.907 198.015 320.656C197.601 321.385 197.394 322.262 197.394 323.287C197.394 324.292 197.601 325.169 198.015 325.918C198.429 326.667 198.981 327.239 199.671 327.633C200.38 328.027 201.179 328.224 202.065 328.224Z" fill="#363636"/>
<path d="M214.527 331.181V314.507C214.527 312.851 215.01 311.531 215.976 310.545C216.962 309.54 218.361 309.037 220.174 309.037C220.825 309.037 221.436 309.106 222.007 309.244C222.598 309.382 223.091 309.599 223.485 309.895L222.48 312.674C222.204 312.457 221.889 312.299 221.534 312.201C221.179 312.082 220.815 312.023 220.44 312.023C219.672 312.023 219.09 312.24 218.696 312.674C218.302 313.088 218.105 313.718 218.105 314.566V316.34L218.223 317.995V331.181H214.527ZM211.926 318.468V315.512H222.451V318.468H211.926Z" fill="#363636"/>
<path d="M239.79 331.388C238.272 331.388 236.903 331.053 235.681 330.382C234.478 329.693 233.532 328.747 232.842 327.544C232.153 326.342 231.808 324.923 231.808 323.287C231.808 321.651 232.153 320.232 232.842 319.03C233.532 317.828 234.478 316.891 235.681 316.221C236.903 315.551 238.272 315.216 239.79 315.216C241.11 315.216 242.293 315.512 243.338 316.103C244.382 316.675 245.21 317.552 245.821 318.734C246.432 319.917 246.737 321.434 246.737 323.287C246.737 325.12 246.442 326.638 245.85 327.84C245.259 329.022 244.441 329.909 243.397 330.501C242.352 331.092 241.15 331.388 239.79 331.388ZM240.233 328.224C241.12 328.224 241.909 328.027 242.598 327.633C243.308 327.239 243.87 326.667 244.284 325.918C244.717 325.169 244.934 324.292 244.934 323.287C244.934 322.262 244.717 321.385 244.284 320.656C243.87 319.907 243.308 319.335 242.598 318.941C241.909 318.547 241.12 318.35 240.233 318.35C239.346 318.35 238.548 318.547 237.839 318.941C237.149 319.335 236.587 319.907 236.154 320.656C235.74 321.385 235.533 322.262 235.533 323.287C235.533 324.292 235.74 325.169 236.154 325.918C236.587 326.667 237.149 327.239 237.839 327.633C238.548 328.027 239.346 328.224 240.233 328.224ZM245.023 331.181V327.456L245.17 323.258L244.875 319.059V309.244H248.541V331.181H245.023Z" fill="#363636"/>
<path d="M260.825 331.388C259.071 331.388 257.534 331.043 256.213 330.353C254.912 329.643 253.897 328.678 253.168 327.456C252.459 326.234 252.104 324.844 252.104 323.287C252.104 321.71 252.449 320.321 253.139 319.119C253.848 317.897 254.814 316.941 256.036 316.251C257.278 315.561 258.687 315.216 260.263 315.216C261.801 315.216 263.171 315.551 264.373 316.221C265.575 316.891 266.521 317.838 267.211 319.059C267.901 320.281 268.246 321.72 268.246 323.376C268.246 323.533 268.236 323.711 268.216 323.908C268.216 324.105 268.206 324.292 268.187 324.47H255.031V322.016H266.235L264.787 322.785C264.806 321.878 264.619 321.08 264.225 320.39C263.831 319.7 263.289 319.158 262.599 318.764C261.929 318.37 261.15 318.173 260.263 318.173C259.357 318.173 258.559 318.37 257.869 318.764C257.199 319.158 256.667 319.71 256.272 320.419C255.898 321.109 255.711 321.927 255.711 322.873V323.464C255.711 324.411 255.927 325.248 256.361 325.977C256.795 326.707 257.406 327.268 258.194 327.663C258.982 328.057 259.889 328.254 260.914 328.254C261.801 328.254 262.599 328.116 263.309 327.84C264.018 327.564 264.649 327.13 265.201 326.539L267.181 328.816C266.472 329.643 265.575 330.284 264.491 330.737C263.427 331.171 262.205 331.388 260.825 331.388Z" fill="#363636"/>
<path d="M279.039 331.388C277.383 331.388 275.905 331.043 274.604 330.353C273.323 329.643 272.318 328.678 271.588 327.456C270.859 326.234 270.495 324.844 270.495 323.287C270.495 321.71 270.859 320.321 271.588 319.119C272.318 317.897 273.323 316.941 274.604 316.251C275.905 315.561 277.383 315.216 279.039 315.216C280.576 315.216 281.926 315.532 283.089 316.162C284.271 316.773 285.168 317.68 285.779 318.882L282.941 320.538C282.468 319.789 281.886 319.237 281.197 318.882C280.527 318.527 279.797 318.35 279.009 318.35C278.102 318.35 277.284 318.547 276.555 318.941C275.826 319.335 275.254 319.907 274.84 320.656C274.427 321.385 274.22 322.262 274.22 323.287C274.22 324.312 274.427 325.199 274.84 325.948C275.254 326.677 275.826 327.239 276.555 327.633C277.284 328.027 278.102 328.224 279.009 328.224C279.797 328.224 280.527 328.047 281.197 327.692C281.886 327.337 282.468 326.785 282.941 326.037L285.779 327.692C285.168 328.875 284.271 329.791 283.089 330.442C281.926 331.072 280.576 331.388 279.039 331.388Z" fill="#363636"/>
<path d="M298.7 331.181V327.988L298.493 327.308V321.72C298.493 320.636 298.168 319.799 297.517 319.207C296.867 318.596 295.882 318.291 294.561 318.291C293.674 318.291 292.797 318.429 291.93 318.705C291.082 318.981 290.363 319.365 289.772 319.858L288.323 317.167C289.171 316.517 290.176 316.034 291.339 315.719C292.521 315.384 293.743 315.216 295.005 315.216C297.291 315.216 299.055 315.768 300.296 316.872C301.558 317.956 302.189 319.641 302.189 321.927V331.181H298.7ZM293.733 331.388C292.551 331.388 291.516 331.19 290.629 330.796C289.742 330.382 289.052 329.821 288.56 329.111C288.087 328.382 287.85 327.564 287.85 326.657C287.85 325.77 288.057 324.972 288.471 324.263C288.905 323.553 289.604 322.991 290.57 322.578C291.536 322.164 292.817 321.957 294.413 321.957H298.996V324.411H294.679C293.418 324.411 292.57 324.617 292.137 325.031C291.703 325.426 291.486 325.918 291.486 326.51C291.486 327.18 291.753 327.712 292.285 328.106C292.817 328.5 293.556 328.697 294.502 328.697C295.409 328.697 296.217 328.49 296.926 328.076C297.655 327.663 298.178 327.052 298.493 326.243L299.114 328.461C298.759 329.387 298.119 330.106 297.192 330.619C296.286 331.131 295.133 331.388 293.733 331.388Z" fill="#363636"/>
<path d="M307.943 337.123C307.175 337.123 306.406 336.995 305.637 336.739C304.869 336.482 304.228 336.128 303.716 335.674L305.194 332.954C305.568 333.29 305.992 333.556 306.465 333.753C306.938 333.95 307.421 334.048 307.914 334.048C308.584 334.048 309.126 333.881 309.54 333.546C309.954 333.211 310.338 332.649 310.693 331.861L311.609 329.791L311.905 329.348L317.877 315.394H321.424L314.033 332.452C313.541 333.634 312.989 334.571 312.378 335.26C311.787 335.95 311.116 336.433 310.368 336.709C309.638 336.985 308.83 337.123 307.943 337.123ZM311.195 331.742L304.07 315.394H307.914L313.708 329.022L311.195 331.742Z" fill="#363636"/>
<path fill-rule="evenodd" clip-rule="evenodd" d="M88.7555 347.502C88.7555 371.823 69.0391 391.539 44.7178 391.539C20.3965 391.539 0.680176 371.823 0.680176 347.502C0.680176 323.18 20.3965 303.464 44.7178 303.464C69.0391 303.464 88.7555 323.18 88.7555 347.502ZM44.7178 379.221C62.236 379.221 76.4372 365.02 76.4372 347.502C76.4372 329.983 62.236 315.782 44.7178 315.782C27.1997 315.782 12.9984 329.983 12.9984 347.502C12.9984 365.02 27.1997 379.221 44.7178 379.221Z" fill="white"/>
</svg>
