<svg width="143" height="143" viewBox="0 0 143 143" fill="none" xmlns="http://www.w3.org/2000/svg">
<circle cx="71.5" cy="71.5" r="61.5" fill="#04EA14" stroke="white" stroke-width="20"/>
<path d="M65.5184 82.2359L51.0359 67.3854C51.0355 67.385 51.0351 67.3846 51.0347 67.3842C50.6011 66.9369 50.0832 66.581 49.5108 66.3377L49.1196 67.258L49.5108 66.3377C48.9379 66.0941 48.3222 65.9685 47.7 65.9685C47.0778 65.9685 46.4622 66.0941 45.8892 66.3377L46.2804 67.258L45.8892 66.3377C45.3164 66.5812 44.7981 66.9375 44.3644 67.3852C43.4886 68.2889 43 69.5017 43 70.7625C43 72.0234 43.4886 73.2361 44.3644 74.1398L44.3666 74.1421L62.3552 92.5861C62.3556 92.5865 62.3561 92.587 62.3565 92.5875C62.8003 93.0443 63.332 93.4056 63.9198 93.6486C64.5081 93.8919 65.1398 94.0113 65.7759 93.9992C66.4121 93.9871 67.0388 93.8438 67.6176 93.5784C68.1963 93.3131 68.7147 92.9314 69.1412 92.4575L69.1535 92.4439L69.1652 92.4299L98.713 57.0875C100.458 55.2096 100.427 52.2539 98.6302 50.4152C98.1967 49.9682 97.679 49.6124 97.1068 49.3692C96.5339 49.1256 95.9182 49 95.296 49C94.6738 49 94.0582 49.1256 93.4852 49.3692C92.9155 49.6113 92.3997 49.9651 91.9675 50.4094C91.9095 50.4672 91.8547 50.5282 91.8034 50.592L65.5184 82.2359Z" fill="white" stroke="white" stroke-width="2"/>
</svg>
