<svg width="484" height="160" viewBox="0 0 484 160" fill="none" xmlns="http://www.w3.org/2000/svg">
<path opacity="0.35" fill-rule="evenodd" clip-rule="evenodd" d="M0 81L484 81L0 81L62.8641 160H484V81V0H62.8641L0 81Z" fill="white"/>
<path fill-rule="evenodd" clip-rule="evenodd" d="M41 81L484 81L41 81L103.864 159H484V81V0H103.864L41 81Z" fill="#363636"/>
<path d="M220.293 67V50.2H227.205C228.693 50.2 229.965 50.44 231.021 50.92C232.093 51.4 232.917 52.088 233.493 52.984C234.069 53.88 234.357 54.944 234.357 56.176C234.357 57.408 234.069 58.472 233.493 59.368C232.917 60.264 232.093 60.952 231.021 61.432C229.965 61.912 228.693 62.152 227.205 62.152H222.021L223.413 60.688V67H220.293ZM223.413 61.024L222.021 59.512H227.061C228.437 59.512 229.469 59.224 230.157 58.648C230.861 58.056 231.213 57.232 231.213 56.176C231.213 55.104 230.861 54.28 230.157 53.704C229.469 53.128 228.437 52.84 227.061 52.84H222.021L223.413 51.304V61.024ZM243.474 67.168C242.162 67.168 240.994 66.888 239.97 66.328C238.946 65.752 238.138 64.968 237.546 63.976C236.954 62.984 236.658 61.856 236.658 60.592C236.658 59.312 236.954 58.184 237.546 57.208C238.138 56.216 238.946 55.44 239.97 54.88C240.994 54.32 242.162 54.04 243.474 54.04C244.802 54.04 245.978 54.32 247.002 54.88C248.042 55.44 248.85 56.208 249.426 57.184C250.018 58.16 250.314 59.296 250.314 60.592C250.314 61.856 250.018 62.984 249.426 63.976C248.85 64.968 248.042 65.752 247.002 66.328C245.978 66.888 244.802 67.168 243.474 67.168ZM243.474 64.6C244.21 64.6 244.866 64.44 245.442 64.12C246.018 63.8 246.466 63.336 246.786 62.728C247.122 62.12 247.29 61.408 247.29 60.592C247.29 59.76 247.122 59.048 246.786 58.456C246.466 57.848 246.018 57.384 245.442 57.064C244.866 56.744 244.218 56.584 243.498 56.584C242.762 56.584 242.106 56.744 241.53 57.064C240.97 57.384 240.522 57.848 240.186 58.456C239.85 59.048 239.682 59.76 239.682 60.592C239.682 61.408 239.85 62.12 240.186 62.728C240.522 63.336 240.97 63.8 241.53 64.12C242.106 64.44 242.754 64.6 243.474 64.6ZM256.239 67L251.535 54.184H254.367L258.399 65.488H257.055L261.279 54.184H263.799L267.903 65.488H266.583L270.735 54.184H273.399L268.671 67H265.791L262.047 56.992H262.935L259.119 67H256.239ZM281.71 67.168C280.286 67.168 279.038 66.888 277.966 66.328C276.91 65.752 276.086 64.968 275.494 63.976C274.918 62.984 274.63 61.856 274.63 60.592C274.63 59.312 274.91 58.184 275.47 57.208C276.046 56.216 276.83 55.44 277.822 54.88C278.83 54.32 279.974 54.04 281.254 54.04C282.502 54.04 283.614 54.312 284.59 54.856C285.566 55.4 286.334 56.168 286.894 57.16C287.454 58.152 287.734 59.32 287.734 60.664C287.734 60.792 287.726 60.936 287.71 61.096C287.71 61.256 287.702 61.408 287.686 61.552H277.006V59.56H286.102L284.926 60.184C284.942 59.448 284.79 58.8 284.47 58.24C284.15 57.68 283.71 57.24 283.15 56.92C282.606 56.6 281.974 56.44 281.254 56.44C280.518 56.44 279.87 56.6 279.31 56.92C278.766 57.24 278.334 57.688 278.014 58.264C277.71 58.824 277.558 59.488 277.558 60.256V60.736C277.558 61.504 277.734 62.184 278.086 62.776C278.438 63.368 278.934 63.824 279.574 64.144C280.214 64.464 280.95 64.624 281.782 64.624C282.502 64.624 283.15 64.512 283.726 64.288C284.302 64.064 284.814 63.712 285.262 63.232L286.87 65.08C286.294 65.752 285.566 66.272 284.686 66.64C283.822 66.992 282.83 67.168 281.71 67.168ZM291.192 67V54.184H294.048V57.712L293.712 56.68C294.096 55.816 294.696 55.16 295.512 54.712C296.344 54.264 297.376 54.04 298.608 54.04V56.896C298.48 56.864 298.36 56.848 298.248 56.848C298.136 56.832 298.024 56.824 297.912 56.824C296.776 56.824 295.872 57.16 295.2 57.832C294.528 58.488 294.192 59.472 294.192 60.784V67H291.192ZM307.635 67.168C306.211 67.168 304.963 66.888 303.891 66.328C302.835 65.752 302.011 64.968 301.419 63.976C300.843 62.984 300.555 61.856 300.555 60.592C300.555 59.312 300.835 58.184 301.395 57.208C301.971 56.216 302.755 55.44 303.747 54.88C304.755 54.32 305.899 54.04 307.179 54.04C308.427 54.04 309.539 54.312 310.515 54.856C311.491 55.4 312.259 56.168 312.819 57.16C313.379 58.152 313.659 59.32 313.659 60.664C313.659 60.792 313.651 60.936 313.635 61.096C313.635 61.256 313.627 61.408 313.611 61.552H302.931V59.56H312.027L310.851 60.184C310.867 59.448 310.715 58.8 310.395 58.24C310.075 57.68 309.635 57.24 309.075 56.92C308.531 56.6 307.899 56.44 307.179 56.44C306.443 56.44 305.795 56.6 305.235 56.92C304.691 57.24 304.259 57.688 303.939 58.264C303.635 58.824 303.483 59.488 303.483 60.256V60.736C303.483 61.504 303.659 62.184 304.011 62.776C304.363 63.368 304.859 63.824 305.499 64.144C306.139 64.464 306.875 64.624 307.707 64.624C308.427 64.624 309.075 64.512 309.651 64.288C310.227 64.064 310.739 63.712 311.187 63.232L312.795 65.08C312.219 65.752 311.491 66.272 310.611 66.64C309.747 66.992 308.755 67.168 307.635 67.168ZM322.541 67.168C321.309 67.168 320.197 66.896 319.205 66.352C318.229 65.792 317.461 65.024 316.901 64.048C316.341 63.072 316.061 61.92 316.061 60.592C316.061 59.264 316.341 58.112 316.901 57.136C317.461 56.16 318.229 55.4 319.205 54.856C320.197 54.312 321.309 54.04 322.541 54.04C323.613 54.04 324.573 54.28 325.421 54.76C326.269 55.224 326.941 55.936 327.437 56.896C327.933 57.856 328.181 59.088 328.181 60.592C328.181 62.08 327.941 63.312 327.461 64.288C326.981 65.248 326.317 65.968 325.469 66.448C324.621 66.928 323.645 67.168 322.541 67.168ZM322.901 64.6C323.621 64.6 324.261 64.44 324.821 64.12C325.397 63.8 325.853 63.336 326.189 62.728C326.541 62.12 326.717 61.408 326.717 60.592C326.717 59.76 326.541 59.048 326.189 58.456C325.853 57.848 325.397 57.384 324.821 57.064C324.261 56.744 323.621 56.584 322.901 56.584C322.181 56.584 321.533 56.744 320.957 57.064C320.397 57.384 319.941 57.848 319.589 58.456C319.253 59.048 319.085 59.76 319.085 60.592C319.085 61.408 319.253 62.12 319.589 62.728C319.941 63.336 320.397 63.8 320.957 64.12C321.533 64.44 322.181 64.6 322.901 64.6ZM326.789 67V63.976L326.909 60.568L326.669 57.16V49.192H329.645V67H326.789ZM348.483 67.168C347.395 67.168 346.427 66.928 345.579 66.448C344.731 65.968 344.059 65.248 343.563 64.288C343.083 63.312 342.843 62.08 342.843 60.592C342.843 59.088 343.091 57.856 343.587 56.896C344.099 55.936 344.779 55.224 345.627 54.76C346.491 54.28 347.443 54.04 348.483 54.04C349.747 54.04 350.859 54.312 351.819 54.856C352.795 55.4 353.563 56.16 354.123 57.136C354.699 58.112 354.987 59.264 354.987 60.592C354.987 61.92 354.699 63.072 354.123 64.048C353.563 65.024 352.795 65.792 351.819 66.352C350.859 66.896 349.747 67.168 348.483 67.168ZM341.379 67V49.192H344.379V57.16L344.139 60.568L344.235 63.976V67H341.379ZM348.147 64.6C348.867 64.6 349.507 64.44 350.067 64.12C350.643 63.8 351.099 63.336 351.435 62.728C351.771 62.12 351.939 61.408 351.939 60.592C351.939 59.76 351.771 59.048 351.435 58.456C351.099 57.848 350.643 57.384 350.067 57.064C349.507 56.744 348.867 56.584 348.147 56.584C347.427 56.584 346.779 56.744 346.203 57.064C345.627 57.384 345.171 57.848 344.835 58.456C344.499 59.048 344.331 59.76 344.331 60.592C344.331 61.408 344.499 62.12 344.835 62.728C345.171 63.336 345.627 63.8 346.203 64.12C346.779 64.44 347.427 64.6 348.147 64.6ZM359.112 71.824C358.488 71.824 357.864 71.72 357.24 71.512C356.616 71.304 356.096 71.016 355.68 70.648L356.88 68.44C357.184 68.712 357.528 68.928 357.912 69.088C358.296 69.248 358.688 69.328 359.088 69.328C359.632 69.328 360.072 69.192 360.408 68.92C360.744 68.648 361.056 68.192 361.344 67.552L362.088 65.872L362.328 65.512L367.176 54.184H370.056L364.056 68.032C363.656 68.992 363.208 69.752 362.712 70.312C362.232 70.872 361.688 71.264 361.08 71.488C360.488 71.712 359.832 71.824 359.112 71.824ZM361.752 67.456L355.968 54.184H359.088L363.792 65.248L361.752 67.456Z" fill="url(#paint0_linear_46_439)"/>
<path d="M227.62 108.248H235.684V113H221.464V87.728H227.62V108.248ZM251.436 113.252C249.06 113.252 246.876 112.7 244.884 111.596C242.916 110.492 241.344 108.956 240.168 106.988C239.016 104.996 238.44 102.764 238.44 100.292C238.44 97.82 239.016 95.6 240.168 93.632C241.344 91.664 242.916 90.128 244.884 89.024C246.876 87.92 249.06 87.368 251.436 87.368C253.812 87.368 255.984 87.92 257.952 89.024C259.944 90.128 261.504 91.664 262.632 93.632C263.784 95.6 264.36 97.82 264.36 100.292C264.36 102.764 263.784 104.996 262.632 106.988C261.48 108.956 259.92 110.492 257.952 111.596C255.984 112.7 253.812 113.252 251.436 113.252ZM251.436 107.636C253.452 107.636 255.06 106.964 256.26 105.62C257.484 104.276 258.096 102.5 258.096 100.292C258.096 98.06 257.484 96.284 256.26 94.964C255.06 93.62 253.452 92.948 251.436 92.948C249.396 92.948 247.764 93.608 246.54 94.928C245.34 96.248 244.74 98.036 244.74 100.292C244.74 102.524 245.34 104.312 246.54 105.656C247.764 106.976 249.396 107.636 251.436 107.636ZM285.425 95.72C284.969 94.88 284.309 94.244 283.445 93.812C282.605 93.356 281.609 93.128 280.457 93.128C278.465 93.128 276.869 93.788 275.669 95.108C274.469 96.404 273.869 98.144 273.869 100.328C273.869 102.656 274.493 104.48 275.741 105.8C277.013 107.096 278.753 107.744 280.961 107.744C282.473 107.744 283.745 107.36 284.777 106.592C285.833 105.824 286.601 104.72 287.081 103.28H279.269V98.744H292.661V104.468C292.205 106.004 291.425 107.432 290.321 108.752C289.241 110.072 287.861 111.14 286.181 111.956C284.501 112.772 282.605 113.18 280.493 113.18C277.997 113.18 275.765 112.64 273.797 111.56C271.853 110.456 270.329 108.932 269.225 106.988C268.145 105.044 267.605 102.824 267.605 100.328C267.605 97.832 268.145 95.612 269.225 93.668C270.329 91.7 271.853 90.176 273.797 89.096C275.741 87.992 277.961 87.44 280.457 87.44C283.481 87.44 286.025 88.172 288.089 89.636C290.177 91.1 291.557 93.128 292.229 95.72H285.425ZM318.607 87.728L309.859 104.648V113H303.703V104.648L294.955 87.728H301.939L306.835 98.312L311.695 87.728H318.607ZM324.831 113.288C323.751 113.288 322.863 112.976 322.167 112.352C321.495 111.704 321.159 110.912 321.159 109.976C321.159 109.016 321.495 108.212 322.167 107.564C322.863 106.916 323.751 106.592 324.831 106.592C325.887 106.592 326.751 106.916 327.423 107.564C328.119 108.212 328.467 109.016 328.467 109.976C328.467 110.912 328.119 111.704 327.423 112.352C326.751 112.976 325.887 113.288 324.831 113.288Z" fill="white"/>
<path d="M348.708 108.536H339.276L337.764 113H331.32L340.464 87.728H347.592L356.736 113H350.22L348.708 108.536ZM347.124 103.784L343.992 94.532L340.896 103.784H347.124ZM366.539 87.728V113H360.383V87.728H366.539Z" fill="#59B1FF"/>
<defs>
<linearGradient id="paint0_linear_46_439" x1="260.75" y1="49.7632" x2="370.984" y2="62.1047" gradientUnits="userSpaceOnUse">
<stop stop-color="#A4A7FF"/>
<stop offset="0.450814" stop-color="#E55C9D"/>
<stop offset="1" stop-color="#E9955A"/>
</linearGradient>
</defs>
</svg>
