<svg width="539" height="82" viewBox="0 0 539 82" fill="none" xmlns="http://www.w3.org/2000/svg">
<path d="M310.21 41.0639C310.21 63.3442 292.149 81.406 269.868 81.406C247.588 81.406 229.526 63.3442 229.526 41.0639C229.526 18.7835 247.588 0.72168 269.868 0.72168C292.149 0.72168 310.21 18.7835 310.21 41.0639Z" fill="#363636"/>
<path d="M0.407227 40.7559H538.098V41.9877H0.407227V40.7559Z" fill="#363636"/>
<path d="M250.467 31.3718C250.467 29.6135 251.166 27.9272 252.409 26.684C253.652 25.4407 255.338 24.7422 257.097 24.7422H262.931C263.282 24.7422 263.62 24.8819 263.868 25.1305C264.117 25.3792 264.257 25.7165 264.257 26.0681C264.257 26.4198 264.117 26.757 263.868 27.0057C263.62 27.2543 263.282 27.394 262.931 27.394H257.097C256.042 27.394 255.03 27.8131 254.284 28.5591C253.538 29.3051 253.119 30.3168 253.119 31.3718V37.2058C253.119 37.5575 252.979 37.8947 252.731 38.1434C252.482 38.3921 252.145 38.5318 251.793 38.5318C251.441 38.5318 251.104 38.3921 250.855 38.1434C250.607 37.8947 250.467 37.5575 250.467 37.2058V31.3718ZM274.864 26.0681C274.864 25.3362 275.458 24.7422 276.19 24.7422H282.024C283.782 24.7422 285.468 25.4407 286.712 26.684C287.955 27.9272 288.654 29.6135 288.654 31.3718V37.2058C288.654 37.5575 288.514 37.8947 288.265 38.1434C288.017 38.3921 287.679 38.5318 287.328 38.5318C286.976 38.5318 286.639 38.3921 286.39 38.1434C286.141 37.8947 286.002 37.5575 286.002 37.2058V31.3718C286.002 30.3168 285.583 29.3051 284.837 28.5591C284.091 27.8131 283.079 27.394 282.024 27.394H276.19C275.458 27.394 274.864 26.8 274.864 26.0681ZM251.793 49.1391C252.525 49.1391 253.119 49.7331 253.119 50.465V56.2991C253.119 57.354 253.538 58.3658 254.284 59.1118C255.03 59.8577 256.042 60.2768 257.097 60.2768H262.931C263.282 60.2768 263.62 60.4165 263.868 60.6652C264.117 60.9138 264.257 61.2511 264.257 61.6028C264.257 61.9544 264.117 62.2917 263.868 62.5403C263.62 62.789 263.282 62.9287 262.931 62.9287H257.097C255.338 62.9287 253.652 62.2302 252.409 60.9869C251.166 59.7436 250.467 58.0574 250.467 56.2991V50.465C250.467 49.7331 251.061 49.1391 251.793 49.1391ZM287.328 49.1391C288.06 49.1391 288.654 49.7331 288.654 50.465V56.2991C288.654 58.0574 287.955 59.7436 286.712 60.9869C285.468 62.2302 283.782 62.9287 282.024 62.9287H276.19C275.838 62.9287 275.501 62.789 275.252 62.5403C275.004 62.2917 274.864 61.9544 274.864 61.6028C274.864 61.2511 275.004 60.9138 275.252 60.6652C275.501 60.4165 275.838 60.2768 276.19 60.2768H282.024C283.079 60.2768 284.091 59.8577 284.837 59.1118C285.583 58.3658 286.002 57.354 286.002 56.2991V50.465C286.002 49.7331 286.596 49.1391 287.328 49.1391ZM272.742 44.3658C272.742 43.5218 272.407 42.7124 271.81 42.1156C271.214 41.5189 270.404 41.1836 269.56 41.1836C268.716 41.1836 267.907 41.5189 267.31 42.1156C266.713 42.7124 266.378 43.5218 266.378 44.3658C266.378 45.2098 266.713 46.0192 267.31 46.616C267.907 47.2127 268.716 47.548 269.56 47.548C270.404 47.548 271.214 47.2127 271.81 46.616C272.407 46.0192 272.742 45.2098 272.742 44.3658ZM273.66 34.939C273.449 34.5805 273.149 34.2833 272.788 34.0767C272.427 33.8702 272.018 33.7616 271.602 33.7616H267.568C267.16 33.7617 266.759 33.8664 266.403 34.0657C266.047 34.2649 265.748 34.5521 265.535 34.8998L264.607 36.4103H262.4C261.486 36.4103 260.609 36.7735 259.963 37.42C259.316 38.0665 258.953 38.9434 258.953 39.8577V49.9347C258.953 50.849 259.316 51.7258 259.963 52.3723C260.609 53.0188 261.486 53.3821 262.4 53.3821H276.72C277.635 53.3821 278.511 53.0188 279.158 52.3723C279.804 51.7258 280.168 50.849 280.168 49.9347V39.8577C280.168 38.9434 279.804 38.0665 279.158 37.42C278.511 36.7735 277.635 36.4103 276.72 36.4103H274.525L273.66 34.939ZM264.787 44.3658C264.787 43.0998 265.29 41.8857 266.185 40.9906C267.08 40.0954 268.294 39.5925 269.56 39.5925C270.826 39.5925 272.04 40.0954 272.936 40.9906C273.831 41.8857 274.334 43.0998 274.334 44.3658C274.334 45.6318 273.831 46.8459 272.936 47.741C272.04 48.6362 270.826 49.1391 269.56 49.1391C268.294 49.1391 267.08 48.6362 266.185 47.741C265.29 46.8459 264.787 45.6318 264.787 44.3658Z" fill="url(#paint0_linear_55_518)"/>
<defs>
<linearGradient id="paint0_linear_55_518" x1="250.467" y1="24.7422" x2="288.654" y2="62.9287" gradientUnits="userSpaceOnUse">
<stop stop-color="#A4A7FF"/>
<stop offset="0.541667" stop-color="#C69CB1"/>
<stop offset="1" stop-color="#E99061"/>
</linearGradient>
</defs>
</svg>
